<svg xmlns="http://www.w3.org/2000/svg" width="375" viewBox="0 0 375 375" height="375" version="1.0"><defs><clipPath id="a"><path d="M 0 74.871094 L 375 74.871094 L 375 291.621094 L 0 291.621094 Z M 0 74.871094"/></clipPath><clipPath id="b"><path d="M 23.761719 19.457031 L 351.511719 19.457031 L 351.511719 347.207031 L 23.761719 347.207031 Z M 23.761719 19.457031"/></clipPath></defs><g clip-path="url(#a)"><path d="M 363.398438 232.40625 C 358.644531 248.589844 351.386719 263.945312 342.378906 278.089844 C 334.941406 289.597656 326.484375 300.414062 316.984375 310.253906 C 315.753906 311.597656 314.382812 312.800781 313.078125 314.070312 C 311.75 315.316406 310.460938 316.601562 309.109375 317.816406 L 304.988281 321.398438 L 302.929688 323.191406 L 300.792969 324.890625 L 296.527344 328.296875 C 295.082031 329.402344 293.589844 330.445312 292.128906 331.53125 C 289.234375 333.742188 286.15625 335.691406 283.140625 337.742188 C 282.707031 338.035156 282.25 338.339844 281.777344 338.660156 C 281.285156 338.953125 280.773438 339.261719 280.242188 339.582031 C 279.179688 340.21875 278.035156 340.902344 276.816406 341.628906 C 274.410156 343.140625 271.558594 344.566406 268.484375 346.199219 C 267.710938 346.597656 266.9375 347.035156 266.117188 347.425781 C 265.296875 347.808594 264.457031 348.199219 263.601562 348.59375 C 261.894531 349.382812 260.121094 350.203125 258.296875 351.046875 C 254.546875 352.511719 250.640625 354.269531 246.382812 355.632812 C 229.558594 361.734375 208.566406 365.503906 187.5 365.589844 C 166.433594 365.503906 145.441406 361.734375 128.621094 355.632812 C 124.359375 354.269531 120.453125 352.511719 116.703125 351.046875 C 114.878906 350.203125 113.109375 349.382812 111.398438 348.59375 C 110.542969 348.199219 109.703125 347.808594 108.882812 347.425781 C 108.066406 347.035156 107.289062 346.597656 106.515625 346.199219 C 103.441406 344.566406 100.589844 343.140625 98.1875 341.628906 C 96.96875 340.902344 95.824219 340.21875 94.761719 339.582031 C 94.230469 339.261719 93.71875 338.957031 93.226562 338.660156 C 92.75 338.339844 92.292969 338.035156 91.859375 337.742188 C 80.414062 330.242188 69.664062 321.722656 59.890625 312.152344 C 49.582031 301.855469 40.570312 290.320312 32.621094 278.089844 C 23.613281 263.945312 16.355469 248.589844 11.601562 232.40625 C 6.652344 216.273438 4.363281 199.34375 4.214844 182.410156 C 4.363281 165.476562 6.652344 148.546875 11.601562 132.414062 C 16.355469 116.230469 23.613281 100.875 32.621094 86.730469 C 40.058594 75.222656 48.515625 64.40625 58.015625 54.566406 C 59.246094 53.222656 60.617188 52.019531 61.921875 50.75 C 63.25 49.503906 64.539062 48.21875 65.890625 47.003906 L 70.011719 43.421875 L 72.070312 41.625 L 74.207031 39.929688 L 78.472656 36.523438 C 79.917969 35.417969 81.410156 34.371094 82.871094 33.289062 C 85.765625 31.078125 88.84375 29.128906 91.859375 27.078125 C 92.292969 26.785156 92.75 26.480469 93.222656 26.160156 C 93.714844 25.867188 94.226562 25.558594 94.757812 25.238281 C 95.820312 24.601562 96.964844 23.917969 98.183594 23.191406 C 100.589844 21.679688 103.441406 20.253906 106.515625 18.621094 C 107.289062 18.222656 108.0625 17.785156 108.882812 17.394531 C 109.703125 17.011719 110.542969 16.621094 111.398438 16.226562 C 113.105469 15.4375 114.878906 14.617188 116.703125 13.773438 C 120.453125 12.308594 124.359375 10.550781 128.617188 9.1875 C 145.441406 3.085938 166.433594 -0.683594 187.5 -0.769531 C 208.566406 -0.683594 229.558594 3.085938 246.378906 9.1875 C 250.640625 10.550781 254.546875 12.308594 258.296875 13.773438 C 260.121094 14.617188 261.890625 15.4375 263.601562 16.226562 C 264.457031 16.621094 265.296875 17.011719 266.117188 17.394531 C 266.933594 17.785156 267.710938 18.222656 268.484375 18.621094 C 271.558594 20.253906 274.410156 21.679688 276.8125 23.191406 C 278.03125 23.917969 279.175781 24.601562 280.238281 25.238281 C 280.769531 25.558594 281.28125 25.863281 281.773438 26.160156 C 282.25 26.480469 282.707031 26.785156 283.140625 27.078125 C 294.585938 34.578125 305.335938 43.097656 315.109375 52.667969 C 325.417969 62.964844 334.429688 74.5 342.378906 86.730469 C 351.386719 100.875 358.644531 116.230469 363.398438 132.414062 C 368.347656 148.546875 370.636719 165.476562 370.785156 182.410156 C 370.636719 199.34375 368.347656 216.273438 363.398438 232.40625 Z M 375 182.285156 L 374.996094 182.269531 C 374.839844 164.980469 372.515625 147.683594 367.480469 131.1875 C 362.636719 114.644531 355.214844 98.9375 345.96875 84.515625 L 341.519531 77.832031 C 341.519531 77.832031 340.234375 76.03125 338.308594 73.335938 C 336.453125 70.585938 333.613281 67.195312 330.898438 63.710938 C 327.976562 60.398438 325.175781 56.980469 322.816406 54.652344 C 320.527344 52.257812 319 50.667969 319 50.667969 C 319 50.667969 318.613281 50.273438 317.917969 49.605469 C 317.222656 48.933594 316.230469 47.972656 315.042969 46.824219 C 312.71875 44.457031 309.347656 41.609375 306.039062 38.683594 C 304.34375 37.273438 302.597656 35.921875 300.984375 34.625 C 300.175781 33.980469 299.390625 33.359375 298.648438 32.765625 C 297.878906 32.210938 297.152344 31.6875 296.480469 31.203125 C 293.796875 29.265625 292.003906 27.972656 292.003906 27.972656 C 292.003906 27.972656 291.617188 27.65625 290.984375 27.25 C 290.359375 26.832031 289.527344 26.273438 288.695312 25.714844 C 287.03125 24.601562 285.363281 23.488281 285.363281 23.488281 C 284.917969 23.1875 284.453125 22.871094 283.96875 22.542969 C 283.464844 22.238281 282.945312 21.921875 282.402344 21.597656 C 281.3125 20.941406 280.144531 20.238281 278.898438 19.492188 C 276.4375 17.941406 273.527344 16.476562 270.382812 14.800781 C 269.589844 14.390625 268.796875 13.945312 267.960938 13.542969 C 267.117188 13.148438 266.261719 12.75 265.386719 12.34375 C 263.640625 11.535156 261.828125 10.695312 259.957031 9.828125 C 256.125 8.320312 252.125 6.527344 247.765625 5.121094 C 230.550781 -1.132812 209.054688 -5.003906 187.5 -5.089844 C 165.945312 -5.003906 144.449219 -1.132812 127.234375 5.121094 C 122.875 6.527344 118.875 8.324219 115.042969 9.828125 C 113.171875 10.695312 111.359375 11.535156 109.613281 12.34375 C 108.738281 12.75 107.878906 13.152344 107.039062 13.542969 C 106.203125 13.945312 105.410156 14.390625 104.617188 14.800781 C 101.472656 16.476562 98.558594 17.941406 96.097656 19.492188 C 94.855469 20.238281 93.6875 20.941406 92.597656 21.597656 C 92.054688 21.921875 91.53125 22.242188 91.03125 22.542969 C 90.542969 22.875 90.078125 23.1875 89.632812 23.488281 C 89.632812 23.488281 87.96875 24.601562 86.304688 25.714844 C 85.472656 26.273438 84.640625 26.832031 84.015625 27.25 C 83.382812 27.65625 82.996094 27.972656 82.996094 27.972656 C 82.996094 27.972656 81.203125 29.265625 78.519531 31.203125 C 77.847656 31.6875 77.121094 32.210938 76.351562 32.765625 C 75.609375 33.359375 74.824219 33.980469 74.015625 34.625 C 72.402344 35.921875 70.65625 37.273438 68.960938 38.683594 C 65.652344 41.609375 62.28125 44.457031 59.957031 46.824219 C 58.769531 47.972656 57.777344 48.933594 57.082031 49.605469 C 56.386719 50.273438 56 50.667969 56 50.667969 C 56 50.667969 54.472656 52.257812 52.183594 54.652344 C 49.824219 56.980469 47.023438 60.398438 44.101562 63.710938 C 41.386719 67.195312 38.546875 70.585938 36.691406 73.335938 C 34.761719 76.035156 33.476562 77.832031 33.476562 77.832031 L 29.035156 84.515625 C 19.785156 98.9375 12.363281 114.644531 7.519531 131.1875 C 2.484375 147.683594 0.160156 164.984375 0.00390625 182.273438 L 0 182.285156 L 0 182.535156 L 0.00390625 182.550781 C 0.160156 199.839844 2.484375 217.136719 7.519531 233.632812 C 12.363281 250.175781 19.785156 265.882812 29.035156 280.304688 L 33.480469 286.988281 C 33.480469 286.988281 34.765625 288.785156 36.691406 291.480469 C 38.546875 294.234375 41.386719 297.625 44.101562 301.109375 C 47.023438 304.421875 49.824219 307.839844 52.183594 310.167969 C 54.472656 312.558594 56 314.152344 56 314.152344 C 56 314.152344 56.386719 314.546875 57.082031 315.214844 C 57.777344 315.886719 58.769531 316.847656 59.957031 317.996094 C 62.28125 320.363281 65.652344 323.210938 68.960938 326.136719 C 70.65625 327.546875 72.402344 328.898438 74.015625 330.195312 C 74.824219 330.839844 75.609375 331.460938 76.351562 332.054688 C 77.121094 332.609375 77.847656 333.132812 78.519531 333.617188 C 81.203125 335.554688 82.996094 336.847656 82.996094 336.847656 C 82.996094 336.847656 83.382812 337.164062 84.015625 337.570312 C 84.640625 337.988281 85.472656 338.546875 86.304688 339.105469 C 87.96875 340.21875 89.636719 341.332031 89.636719 341.332031 C 90.082031 341.632812 90.546875 341.949219 91.03125 342.277344 C 91.535156 342.582031 92.054688 342.898438 92.597656 343.222656 C 93.6875 343.878906 94.855469 344.582031 96.101562 345.328125 C 98.5625 346.878906 101.472656 348.34375 104.621094 350.019531 C 105.410156 350.429688 106.203125 350.875 107.039062 351.277344 C 107.882812 351.671875 108.738281 352.070312 109.613281 352.476562 C 111.359375 353.285156 113.175781 354.125 115.042969 354.992188 C 118.875 356.5 122.875 358.292969 127.234375 359.699219 C 144.449219 365.953125 165.945312 369.824219 187.5 369.910156 C 209.054688 369.824219 230.550781 365.953125 247.765625 359.699219 C 252.125 358.292969 256.125 356.496094 259.957031 354.992188 C 261.828125 354.125 263.640625 353.285156 265.386719 352.476562 C 266.261719 352.066406 267.121094 351.667969 267.960938 351.277344 C 268.796875 350.875 269.589844 350.429688 270.382812 350.019531 C 273.527344 348.34375 276.441406 346.878906 278.902344 345.328125 C 280.144531 344.582031 281.3125 343.878906 282.402344 343.222656 C 282.945312 342.898438 283.46875 342.578125 283.96875 342.277344 C 284.457031 341.945312 284.921875 341.632812 285.367188 341.332031 C 285.367188 341.332031 287.03125 340.21875 288.695312 339.105469 C 289.527344 338.546875 290.359375 337.988281 290.984375 337.570312 C 291.617188 337.164062 292.003906 336.847656 292.003906 336.847656 C 292.003906 336.847656 293.796875 335.554688 296.480469 333.617188 C 297.152344 333.132812 297.878906 332.609375 298.648438 332.054688 C 299.390625 331.460938 300.175781 330.839844 300.984375 330.195312 C 302.597656 328.898438 304.34375 327.546875 306.039062 326.136719 C 309.347656 323.210938 312.71875 320.363281 315.042969 317.996094 C 316.230469 316.847656 317.222656 315.886719 317.917969 315.214844 C 318.613281 314.546875 319 314.152344 319 314.152344 C 319 314.152344 320.527344 312.558594 322.816406 310.167969 C 325.175781 307.839844 327.976562 304.421875 330.898438 301.109375 C 333.613281 297.625 336.453125 294.234375 338.308594 291.480469 C 340.238281 288.785156 341.519531 286.988281 341.519531 286.988281 L 345.96875 280.304688 C 355.214844 265.882812 362.636719 250.175781 367.480469 233.632812 C 372.515625 217.136719 374.839844 199.835938 374.996094 182.546875 L 375 182.535156 L 375 182.285156"/></g><g clip-path="url(#b)"><path d="M 187.667969 347.207031 C 143.917969 347.207031 102.710938 330.160156 71.757812 299.207031 C 40.804688 268.253906 23.761719 227.117188 23.761719 183.363281 C 23.761719 139.609375 40.804688 98.40625 71.757812 67.453125 C 102.710938 36.5 143.851562 19.457031 187.667969 19.457031 C 231.488281 19.457031 272.5625 36.5 303.515625 67.453125 C 334.46875 98.40625 351.511719 139.546875 351.511719 183.363281 C 351.511719 227.179688 334.46875 268.253906 303.515625 299.207031 C 272.5625 330.160156 231.421875 347.207031 187.667969 347.207031 Z M 187.667969 29.25 C 146.527344 29.25 107.804688 45.25 78.679688 74.375 C 49.554688 103.5 33.558594 142.15625 33.558594 183.363281 C 33.558594 224.570312 49.554688 263.226562 78.679688 292.351562 C 107.804688 321.476562 146.464844 337.476562 187.667969 337.476562 C 228.875 337.476562 267.535156 321.476562 296.65625 292.351562 C 325.78125 263.226562 341.78125 224.570312 341.78125 183.363281 C 341.78125 142.15625 325.78125 103.5 296.65625 74.375 C 267.46875 45.25 228.808594 29.25 187.667969 29.25 Z M 187.667969 29.25"/></g><path d="M 184.402344 326.765625 L 184.011719 326.765625 C 182.574219 326.699219 181.464844 325.523438 181.53125 324.152344 C 181.597656 322.78125 182.707031 321.671875 184.078125 321.671875 C 184.078125 321.671875 184.144531 321.671875 184.144531 321.671875 L 184.46875 321.671875 C 185.90625 321.738281 187.015625 322.914062 186.949219 324.285156 C 186.949219 325.65625 185.839844 326.765625 184.402344 326.765625 Z M 197.332031 326.441406 C 195.960938 326.441406 194.851562 325.394531 194.785156 324.023438 C 194.722656 322.585938 195.765625 321.410156 197.203125 321.28125 L 197.464844 321.28125 C 198.902344 321.148438 200.140625 322.261719 200.207031 323.632812 C 200.335938 325.066406 199.226562 326.308594 197.855469 326.375 L 197.53125 326.375 C 197.398438 326.441406 197.332031 326.441406 197.332031 326.441406 Z M 171.277344 325.851562 C 171.214844 325.851562 171.082031 325.851562 170.953125 325.851562 L 170.625 325.785156 C 169.1875 325.589844 168.210938 324.351562 168.40625 322.914062 C 168.601562 321.476562 169.839844 320.496094 171.277344 320.691406 L 171.605469 320.757812 C 173.042969 320.890625 174.019531 322.195312 173.890625 323.632812 C 173.628906 324.871094 172.519531 325.851562 171.277344 325.851562 Z M 210.394531 324.9375 C 209.152344 324.9375 208.042969 324.023438 207.847656 322.78125 C 207.585938 321.410156 208.566406 320.039062 210.003906 319.84375 L 210.328125 319.777344 C 211.699219 319.582031 213.070312 320.496094 213.265625 321.933594 C 213.464844 323.371094 212.550781 324.675781 211.113281 324.871094 L 210.785156 324.9375 C 210.722656 324.9375 210.589844 324.9375 210.394531 324.9375 Z M 158.21875 323.695312 C 158.023438 323.695312 157.890625 323.695312 157.695312 323.632812 L 157.367188 323.566406 C 155.996094 323.238281 155.082031 321.867188 155.410156 320.496094 C 155.738281 319.125 157.109375 318.210938 158.480469 318.539062 L 158.804688 318.601562 C 160.175781 318.929688 161.089844 320.234375 160.765625 321.671875 C 160.503906 322.914062 159.394531 323.695312 158.21875 323.695312 Z M 223.324219 322.261719 C 222.148438 322.261719 221.105469 321.476562 220.84375 320.300781 C 220.515625 318.929688 221.300781 317.492188 222.734375 317.167969 L 222.996094 317.101562 C 224.367188 316.710938 225.804688 317.558594 226.132812 318.929688 C 226.523438 320.300781 225.675781 321.738281 224.304688 322.0625 L 223.976562 322.128906 C 223.78125 322.195312 223.519531 322.261719 223.324219 322.261719 Z M 145.484375 320.367188 C 145.222656 320.367188 144.960938 320.300781 144.699219 320.234375 L 144.4375 320.171875 C 143.066406 319.714844 142.285156 318.277344 142.742188 316.90625 C 143.199219 315.535156 144.570312 314.816406 145.941406 315.207031 L 146.269531 315.273438 C 147.640625 315.664062 148.359375 317.167969 147.964844 318.472656 C 147.574219 319.648438 146.527344 320.367188 145.484375 320.367188 Z M 235.925781 318.277344 C 234.882812 318.277344 233.902344 317.625 233.511719 316.578125 C 233.054688 315.273438 233.707031 313.769531 235.078125 313.3125 L 235.339844 313.183594 C 236.644531 312.726562 238.148438 313.378906 238.667969 314.683594 C 239.128906 315.992188 238.472656 317.492188 237.167969 318.015625 L 236.839844 318.144531 C 236.515625 318.277344 236.253906 318.277344 235.925781 318.277344 Z M 133.078125 315.859375 C 132.75 315.859375 132.421875 315.796875 132.097656 315.664062 L 131.769531 315.535156 C 130.464844 314.945312 129.878906 313.445312 130.398438 312.136719 C 130.988281 310.832031 132.488281 310.246094 133.796875 310.765625 L 134.054688 310.898438 C 135.363281 311.421875 136.015625 312.921875 135.425781 314.292969 C 135.035156 315.207031 134.054688 315.859375 133.078125 315.859375 Z M 248.140625 313.183594 C 247.160156 313.183594 246.246094 312.660156 245.851562 311.746094 C 245.265625 310.441406 245.789062 308.9375 247.027344 308.285156 L 247.355469 308.15625 C 248.660156 307.566406 250.164062 308.089844 250.816406 309.394531 C 251.402344 310.703125 250.882812 312.203125 249.574219 312.792969 L 249.3125 312.921875 C 248.855469 313.117188 248.464844 313.183594 248.140625 313.183594 Z M 121.125 310.113281 C 120.734375 310.113281 120.277344 309.984375 119.886719 309.789062 L 119.625 309.65625 C 118.382812 309.003906 117.925781 307.4375 118.578125 306.195312 C 119.234375 304.957031 120.800781 304.5 122.039062 305.152344 L 122.300781 305.28125 C 123.542969 305.933594 124 307.503906 123.347656 308.742188 C 122.953125 309.65625 122.039062 310.113281 121.125 310.113281 Z M 259.761719 306.980469 C 258.914062 306.980469 258.066406 306.523438 257.542969 305.738281 C 256.824219 304.5 257.214844 302.929688 258.390625 302.210938 L 258.652344 302.015625 C 259.894531 301.296875 261.460938 301.691406 262.179688 302.929688 C 262.898438 304.171875 262.503906 305.738281 261.265625 306.457031 L 261.003906 306.585938 C 260.675781 306.847656 260.21875 306.980469 259.761719 306.980469 Z M 109.765625 303.324219 C 109.308594 303.324219 108.785156 303.191406 108.328125 302.867188 L 108.066406 302.667969 C 106.890625 301.886719 106.5625 300.320312 107.347656 299.078125 C 108.132812 297.902344 109.699219 297.574219 110.941406 298.359375 L 111.199219 298.554688 C 112.375 299.339844 112.703125 300.90625 111.917969 302.148438 C 111.460938 302.929688 110.613281 303.324219 109.765625 303.324219 Z M 270.796875 299.664062 C 270.015625 299.664062 269.230469 299.273438 268.707031 298.621094 C 267.859375 297.511719 268.121094 295.878906 269.230469 295.03125 L 269.492188 294.832031 C 270.667969 293.984375 272.234375 294.246094 273.082031 295.355469 C 273.933594 296.53125 273.671875 298.097656 272.5625 298.949219 L 272.300781 299.144531 C 271.84375 299.535156 271.320312 299.664062 270.796875 299.664062 Z M 99.121094 295.550781 C 98.53125 295.550781 97.945312 295.355469 97.488281 294.964844 L 97.226562 294.769531 C 96.117188 293.855469 95.921875 292.285156 96.835938 291.175781 C 97.75 290.066406 99.316406 289.871094 100.425781 290.785156 L 100.6875 290.980469 C 101.796875 291.894531 101.929688 293.527344 101.078125 294.570312 C 100.621094 295.226562 99.902344 295.550781 99.121094 295.550781 Z M 281.050781 291.371094 C 280.332031 291.371094 279.613281 291.109375 279.15625 290.523438 C 278.242188 289.480469 278.308594 287.847656 279.351562 286.933594 L 279.613281 286.734375 C 280.660156 285.757812 282.292969 285.886719 283.269531 286.933594 C 284.25 287.976562 284.121094 289.609375 283.074219 290.589844 L 282.878906 290.785156 C 282.292969 291.175781 281.636719 291.371094 281.050781 291.371094 Z M 89.257812 286.734375 C 88.605469 286.734375 87.953125 286.476562 87.496094 286.019531 L 87.234375 285.757812 C 86.191406 284.777344 86.191406 283.144531 87.234375 282.097656 C 88.214844 281.054688 89.847656 281.054688 90.890625 282.097656 L 91.085938 282.296875 C 92.132812 283.273438 92.132812 284.90625 91.152344 285.953125 C 90.628906 286.539062 89.914062 286.734375 89.257812 286.734375 Z M 290.519531 282.164062 C 289.867188 282.164062 289.277344 281.96875 288.757812 281.445312 C 287.710938 280.46875 287.644531 278.835938 288.625 277.789062 L 288.820312 277.527344 C 289.800781 276.484375 291.433594 276.417969 292.480469 277.398438 C 293.523438 278.378906 293.589844 280.011719 292.609375 281.054688 L 292.414062 281.25 C 291.890625 281.902344 291.171875 282.164062 290.519531 282.164062 Z M 80.246094 277.136719 C 79.53125 277.136719 78.8125 276.808594 78.289062 276.222656 L 78.09375 275.960938 C 77.179688 274.851562 77.308594 273.285156 78.417969 272.304688 C 79.53125 271.390625 81.097656 271.519531 82.074219 272.628906 L 82.273438 272.890625 C 83.1875 274.003906 83.054688 275.570312 81.945312 276.550781 C 81.421875 276.941406 80.835938 277.136719 80.246094 277.136719 Z M 299.074219 272.109375 C 298.550781 272.109375 297.964844 271.914062 297.507812 271.585938 C 296.398438 270.738281 296.136719 269.105469 297.050781 267.996094 L 297.246094 267.734375 C 298.09375 266.621094 299.726562 266.425781 300.835938 267.277344 C 301.949219 268.125 302.144531 269.757812 301.292969 270.867188 L 301.097656 271.128906 C 300.640625 271.78125 299.859375 272.109375 299.074219 272.109375 Z M 72.214844 266.6875 C 71.433594 266.6875 70.582031 266.296875 70.125 265.578125 L 69.929688 265.316406 C 69.144531 264.140625 69.40625 262.574219 70.582031 261.726562 C 71.757812 260.941406 73.324219 261.203125 74.175781 262.378906 L 74.371094 262.640625 C 75.152344 263.816406 74.894531 265.382812 73.71875 266.230469 C 73.195312 266.492188 72.671875 266.6875 72.214844 266.6875 Z M 306.648438 261.332031 C 306.191406 261.332031 305.734375 261.203125 305.277344 260.941406 C 304.101562 260.15625 303.710938 258.589844 304.496094 257.414062 L 304.691406 257.152344 C 305.472656 255.980469 307.039062 255.585938 308.214844 256.371094 C 309.390625 257.152344 309.785156 258.722656 309 259.898438 L 308.804688 260.15625 C 308.347656 260.875 307.5 261.332031 306.648438 261.332031 Z M 65.097656 255.523438 C 64.183594 255.523438 63.335938 255.066406 62.878906 254.214844 L 62.746094 253.953125 C 62.027344 252.714844 62.484375 251.148438 63.726562 250.429688 C 64.96875 249.710938 66.535156 250.167969 67.253906 251.40625 L 67.382812 251.667969 C 68.101562 252.910156 67.644531 254.476562 66.402344 255.195312 C 66.011719 255.390625 65.554688 255.523438 65.097656 255.523438 Z M 313.246094 249.839844 C 312.851562 249.839844 312.460938 249.773438 312.070312 249.578125 C 310.828125 248.925781 310.304688 247.359375 310.960938 246.117188 L 311.089844 245.855469 C 311.742188 244.617188 313.308594 244.09375 314.550781 244.746094 C 315.792969 245.398438 316.3125 246.96875 315.660156 248.207031 L 315.53125 248.46875 C 315.074219 249.316406 314.160156 249.839844 313.246094 249.839844 Z M 59.15625 243.765625 C 58.175781 243.765625 57.261719 243.179688 56.804688 242.265625 L 56.671875 242.003906 C 56.085938 240.699219 56.671875 239.195312 57.980469 238.609375 C 59.285156 238.019531 60.789062 238.609375 61.375 239.914062 L 61.507812 240.175781 C 62.09375 241.480469 61.507812 242.984375 60.199219 243.570312 C 59.875 243.703125 59.480469 243.765625 59.15625 243.765625 Z M 318.664062 237.824219 C 318.339844 237.824219 318.011719 237.757812 317.75 237.628906 C 316.445312 237.105469 315.792969 235.605469 316.3125 234.296875 L 316.445312 233.972656 C 316.96875 232.667969 318.46875 232.011719 319.773438 232.535156 C 321.082031 233.058594 321.734375 234.558594 321.210938 235.867188 L 321.082031 236.191406 C 320.625 237.171875 319.710938 237.824219 318.664062 237.824219 Z M 54.257812 231.492188 C 53.210938 231.492188 52.167969 230.835938 51.839844 229.726562 L 51.710938 229.402344 C 51.253906 228.03125 51.972656 226.59375 53.34375 226.136719 C 54.714844 225.679688 56.152344 226.398438 56.609375 227.769531 L 56.738281 228.09375 C 57.195312 229.464844 56.476562 230.902344 55.171875 231.359375 C 54.84375 231.425781 54.585938 231.492188 54.257812 231.492188 Z M 322.976562 225.351562 C 322.714844 225.351562 322.515625 225.285156 322.257812 225.222656 C 320.886719 224.828125 320.101562 223.394531 320.492188 222.023438 L 320.558594 221.695312 C 320.949219 220.324219 322.386719 219.539062 323.757812 219.933594 C 325.128906 220.324219 325.914062 221.761719 325.519531 223.132812 L 325.457031 223.457031 C 325.0625 224.570312 324.085938 225.351562 322.976562 225.351562 Z M 50.601562 218.757812 C 49.425781 218.757812 48.378906 217.972656 48.117188 216.796875 L 48.054688 216.472656 C 47.726562 215.101562 48.578125 213.730469 49.949219 213.402344 C 51.320312 213.074219 52.691406 213.925781 53.015625 215.296875 L 53.082031 215.621094 C 53.410156 216.992188 52.558594 218.363281 51.1875 218.691406 C 50.992188 218.757812 50.796875 218.757812 50.601562 218.757812 Z M 326.042969 212.488281 C 325.914062 212.488281 325.71875 212.488281 325.519531 212.421875 C 324.148438 212.160156 323.234375 210.789062 323.496094 209.417969 L 323.5625 209.09375 C 323.824219 207.722656 325.195312 206.804688 326.566406 207.066406 C 327.9375 207.328125 328.851562 208.699219 328.589844 210.070312 L 328.523438 210.398438 C 328.328125 211.640625 327.21875 212.488281 326.042969 212.488281 Z M 48.117188 205.828125 C 46.878906 205.828125 45.769531 204.914062 45.574219 203.605469 L 45.507812 203.28125 C 45.3125 201.84375 46.289062 200.601562 47.726562 200.40625 C 49.164062 200.210938 50.40625 201.191406 50.601562 202.628906 L 50.664062 202.953125 C 50.863281 204.390625 49.882812 205.632812 48.511719 205.890625 C 48.378906 205.828125 48.25 205.828125 48.117188 205.828125 Z M 327.871094 199.425781 C 327.808594 199.425781 327.675781 199.425781 327.609375 199.425781 C 326.175781 199.296875 325.128906 198.054688 325.324219 196.621094 L 325.324219 196.292969 C 325.457031 194.855469 326.695312 193.8125 328.132812 194.007812 C 329.570312 194.136719 330.613281 195.378906 330.417969 196.816406 L 330.417969 197.140625 C 330.355469 198.449219 329.179688 199.425781 327.871094 199.425781 Z M 46.945312 192.703125 C 45.574219 192.703125 44.460938 191.65625 44.398438 190.21875 L 44.398438 189.894531 C 44.332031 188.457031 45.441406 187.28125 46.8125 187.214844 C 48.25 187.152344 49.425781 188.261719 49.492188 189.632812 L 49.492188 189.957031 C 49.554688 191.394531 48.445312 192.570312 47.074219 192.636719 C 47.007812 192.703125 46.945312 192.703125 46.945312 192.703125 Z M 328.523438 185.910156 C 327.089844 185.910156 325.847656 185.0625 325.847656 183.625 L 325.847656 183.363281 C 325.847656 183.363281 325.847656 183.296875 325.847656 183.296875 L 325.847656 182.972656 C 325.847656 181.535156 327.023438 180.425781 328.460938 180.425781 C 329.898438 180.425781 331.070312 181.601562 331.070312 182.972656 L 331.070312 183.234375 C 331.070312 183.234375 331.070312 183.296875 331.070312 183.296875 L 331.070312 183.625 C 331.070312 185.0625 329.960938 185.910156 328.523438 185.910156 Z M 46.878906 179.445312 C 46.8125 179.445312 46.8125 179.445312 46.746094 179.445312 C 45.3125 179.378906 44.199219 178.203125 44.265625 176.769531 L 44.265625 176.441406 C 44.332031 175.003906 45.574219 173.960938 46.945312 174.023438 C 48.378906 174.089844 49.492188 175.265625 49.359375 176.703125 L 49.359375 177.027344 C 49.425781 178.398438 48.25 179.445312 46.878906 179.445312 Z M 327.9375 172.71875 C 326.632812 172.71875 325.519531 171.738281 325.390625 170.367188 L 325.390625 170.042969 C 325.261719 168.605469 326.304688 167.363281 327.675781 167.234375 C 329.113281 167.101562 330.355469 168.148438 330.484375 169.519531 L 330.484375 169.84375 C 330.613281 171.28125 329.570312 172.523438 328.132812 172.652344 C 328.066406 172.71875 328.003906 172.71875 327.9375 172.71875 Z M 48.117188 166.320312 C 47.988281 166.320312 47.859375 166.320312 47.792969 166.320312 C 46.355469 166.125 45.375 164.816406 45.574219 163.445312 L 45.636719 163.121094 C 45.832031 161.683594 47.140625 160.703125 48.578125 160.964844 C 50.011719 161.160156 50.992188 162.464844 50.730469 163.902344 L 50.664062 164.230469 C 50.46875 165.40625 49.359375 166.320312 48.117188 166.320312 Z M 326.109375 159.660156 C 324.867188 159.660156 323.824219 158.808594 323.5625 157.570312 L 323.496094 157.242188 C 323.234375 155.871094 324.148438 154.5 325.519531 154.238281 C 326.894531 153.976562 328.265625 154.890625 328.523438 156.261719 L 328.589844 156.589844 C 328.851562 157.960938 327.9375 159.332031 326.566406 159.59375 C 326.371094 159.660156 326.238281 159.660156 326.109375 159.660156 Z M 50.535156 153.324219 C 50.339844 153.324219 50.144531 153.324219 49.949219 153.257812 C 48.578125 152.933594 47.726562 151.5625 48.054688 150.191406 L 48.117188 149.863281 C 48.445312 148.492188 49.816406 147.644531 51.1875 147.96875 C 52.558594 148.296875 53.410156 149.667969 53.082031 151.039062 L 53.015625 151.367188 C 52.753906 152.539062 51.710938 153.324219 50.535156 153.324219 Z M 323.039062 146.792969 C 321.929688 146.792969 320.886719 146.074219 320.558594 144.898438 L 320.492188 144.574219 C 320.101562 143.203125 320.886719 141.765625 322.257812 141.375 C 323.628906 140.980469 325.0625 141.765625 325.457031 143.136719 L 325.519531 143.464844 C 325.914062 144.835938 325.128906 146.273438 323.757812 146.664062 C 323.496094 146.792969 323.234375 146.792969 323.039062 146.792969 Z M 54.191406 140.65625 C 53.929688 140.65625 53.667969 140.589844 53.34375 140.523438 C 51.972656 140.066406 51.253906 138.632812 51.710938 137.261719 L 51.839844 137 C 52.296875 135.628906 53.800781 134.910156 55.105469 135.367188 C 56.476562 135.824219 57.195312 137.261719 56.738281 138.632812 L 56.609375 138.957031 C 56.28125 140.003906 55.238281 140.65625 54.191406 140.65625 Z M 318.796875 134.320312 C 317.75 134.320312 316.769531 133.667969 316.378906 132.6875 L 316.25 132.425781 C 315.726562 131.121094 316.378906 129.621094 317.683594 129.097656 C 318.992188 128.574219 320.492188 129.226562 321.015625 130.535156 L 321.144531 130.859375 C 321.667969 132.167969 321.015625 133.667969 319.710938 134.191406 C 319.382812 134.257812 319.121094 134.320312 318.796875 134.320312 Z M 59.023438 128.378906 C 58.699219 128.378906 58.304688 128.3125 57.980469 128.183594 C 56.671875 127.59375 56.085938 126.09375 56.671875 124.789062 L 56.804688 124.460938 C 57.390625 123.15625 58.894531 122.566406 60.199219 123.15625 C 61.507812 123.742188 62.09375 125.246094 61.507812 126.550781 L 61.375 126.8125 C 60.917969 127.792969 60.003906 128.378906 59.023438 128.378906 Z M 313.375 122.242188 C 312.460938 122.242188 311.546875 121.71875 311.089844 120.804688 L 310.960938 120.542969 C 310.304688 119.300781 310.828125 117.734375 312.070312 117.082031 C 313.308594 116.429688 314.878906 116.953125 315.53125 118.191406 L 315.660156 118.453125 C 316.3125 119.695312 315.792969 121.261719 314.550781 121.914062 C 314.160156 122.175781 313.765625 122.242188 313.375 122.242188 Z M 64.96875 116.558594 C 64.511719 116.558594 64.117188 116.429688 63.726562 116.234375 C 62.484375 115.515625 62.027344 113.949219 62.746094 112.707031 L 62.878906 112.445312 C 63.59375 111.203125 65.164062 110.8125 66.402344 111.464844 C 67.644531 112.183594 68.035156 113.75 67.382812 114.992188 L 67.253906 115.253906 C 66.730469 116.101562 65.882812 116.558594 64.96875 116.558594 Z M 306.84375 110.746094 C 305.996094 110.746094 305.148438 110.289062 304.691406 109.570312 L 304.558594 109.3125 C 303.777344 108.136719 304.167969 106.503906 305.34375 105.785156 C 306.519531 105 308.152344 105.394531 308.871094 106.566406 L 309.066406 106.828125 C 309.847656 108.003906 309.457031 109.636719 308.28125 110.355469 C 307.757812 110.683594 307.300781 110.746094 306.84375 110.746094 Z M 72.019531 105.394531 C 71.496094 105.394531 70.976562 105.261719 70.582031 104.9375 C 69.40625 104.152344 69.144531 102.519531 69.929688 101.34375 L 70.125 101.082031 C 70.910156 99.90625 72.542969 99.644531 73.71875 100.429688 C 74.894531 101.277344 75.152344 102.847656 74.371094 104.019531 L 74.175781 104.28125 C 73.652344 105 72.804688 105.394531 72.019531 105.394531 Z M 299.269531 99.972656 C 298.488281 99.972656 297.703125 99.644531 297.246094 98.992188 L 297.050781 98.730469 C 296.199219 97.621094 296.398438 95.988281 297.507812 95.140625 C 298.617188 94.292969 300.25 94.488281 301.097656 95.597656 L 301.292969 95.859375 C 302.144531 96.96875 301.949219 98.601562 300.835938 99.449219 C 300.378906 99.777344 299.859375 99.972656 299.269531 99.972656 Z M 80.050781 94.945312 C 79.464844 94.945312 78.875 94.75 78.417969 94.355469 C 77.308594 93.441406 77.179688 91.808594 78.09375 90.765625 L 78.289062 90.503906 C 79.203125 89.394531 80.835938 89.328125 81.945312 90.242188 C 83.054688 91.15625 83.121094 92.789062 82.207031 93.898438 L 82.011719 94.160156 C 81.554688 94.617188 80.769531 94.945312 80.050781 94.945312 Z M 290.714844 89.917969 C 289.996094 89.917969 289.34375 89.65625 288.820312 89.066406 L 288.625 88.871094 C 287.644531 87.828125 287.710938 86.195312 288.757812 85.214844 C 289.800781 84.234375 291.433594 84.300781 292.414062 85.34375 L 292.675781 85.605469 C 293.652344 86.652344 293.589844 88.285156 292.542969 89.261719 C 292.023438 89.65625 291.367188 89.917969 290.714844 89.917969 Z M 89.0625 85.28125 C 88.410156 85.28125 87.757812 85.019531 87.234375 84.496094 C 86.253906 83.453125 86.253906 81.882812 87.300781 80.839844 L 87.5625 80.578125 C 88.605469 79.597656 90.238281 79.597656 91.21875 80.644531 C 92.199219 81.6875 92.199219 83.320312 91.152344 84.300781 L 90.957031 84.496094 C 90.371094 85.019531 89.714844 85.28125 89.0625 85.28125 Z M 281.3125 80.644531 C 280.722656 80.644531 280.070312 80.449219 279.613281 79.992188 L 279.417969 79.792969 C 278.375 78.878906 278.242188 77.246094 279.222656 76.136719 C 280.136719 75.09375 281.769531 74.960938 282.878906 75.941406 L 283.140625 76.136719 C 284.183594 77.117188 284.316406 78.683594 283.335938 79.792969 C 282.683594 80.382812 282.03125 80.644531 281.3125 80.644531 Z M 98.925781 76.464844 C 98.207031 76.464844 97.421875 76.136719 96.898438 75.484375 C 95.984375 74.375 96.179688 72.742188 97.292969 71.894531 L 97.550781 71.695312 C 98.664062 70.78125 100.296875 70.980469 101.144531 72.089844 C 102.058594 73.199219 101.863281 74.832031 100.753906 75.679688 L 100.492188 75.875 C 100.035156 76.269531 99.511719 76.464844 98.925781 76.464844 Z M 271.058594 72.351562 C 270.539062 72.351562 270.015625 72.21875 269.558594 71.828125 L 269.296875 71.632812 C 268.121094 70.78125 267.925781 69.214844 268.707031 68.039062 C 269.558594 66.863281 271.191406 66.667969 272.300781 67.453125 L 272.5625 67.648438 C 273.738281 68.496094 273.933594 70.128906 273.085938 71.238281 C 272.625 71.957031 271.84375 72.351562 271.058594 72.351562 Z M 109.566406 68.628906 C 108.71875 68.628906 107.9375 68.234375 107.414062 67.453125 C 106.628906 66.277344 106.957031 64.644531 108.132812 63.859375 L 108.394531 63.664062 C 109.566406 62.882812 111.199219 63.207031 111.984375 64.382812 C 112.769531 65.558594 112.441406 67.191406 111.265625 67.976562 L 111.003906 68.171875 C 110.546875 68.496094 110.023438 68.628906 109.566406 68.628906 Z M 260.023438 65.035156 C 259.566406 65.035156 259.109375 64.90625 258.71875 64.644531 L 258.457031 64.449219 C 257.214844 63.730469 256.824219 62.164062 257.542969 60.921875 C 258.261719 59.679688 259.828125 59.289062 261.070312 60.007812 L 261.328125 60.203125 C 262.570312 60.921875 262.960938 62.488281 262.242188 63.730469 C 261.785156 64.578125 260.9375 65.035156 260.023438 65.035156 Z M 120.867188 61.835938 C 119.949219 61.835938 119.035156 61.3125 118.578125 60.464844 C 117.925781 59.222656 118.382812 57.65625 119.625 57.003906 L 119.886719 56.875 C 121.125 56.21875 122.695312 56.675781 123.347656 57.917969 C 124 59.160156 123.542969 60.726562 122.300781 61.378906 L 122.039062 61.511719 C 121.714844 61.707031 121.257812 61.835938 120.867188 61.835938 Z M 248.398438 58.765625 C 248.007812 58.765625 247.679688 58.703125 247.289062 58.507812 L 247.027344 58.375 C 245.722656 57.789062 245.199219 56.21875 245.789062 54.914062 C 246.375 53.609375 247.941406 53.085938 249.25 53.671875 L 249.511719 53.804688 C 250.816406 54.390625 251.339844 55.960938 250.75 57.265625 C 250.292969 58.246094 249.378906 58.765625 248.398438 58.765625 Z M 132.75 56.089844 C 131.769531 56.089844 130.792969 55.503906 130.398438 54.523438 C 129.878906 53.214844 130.464844 51.714844 131.769531 51.125 L 132.097656 50.996094 C 133.402344 50.472656 134.90625 51.0625 135.492188 52.367188 C 136.015625 53.671875 135.425781 55.175781 134.121094 55.761719 L 133.859375 55.894531 C 133.402344 56.023438 133.078125 56.089844 132.75 56.089844 Z M 236.253906 53.609375 C 235.992188 53.609375 235.667969 53.542969 235.40625 53.476562 L 235.078125 53.347656 C 233.773438 52.890625 233.054688 51.386719 233.578125 50.015625 C 234.035156 48.710938 235.535156 47.992188 236.90625 48.515625 L 237.234375 48.644531 C 238.539062 49.101562 239.257812 50.605469 238.800781 51.976562 C 238.277344 52.957031 237.296875 53.609375 236.253906 53.609375 Z M 145.15625 51.519531 C 144.046875 51.519531 143.066406 50.800781 142.675781 49.691406 C 142.21875 48.320312 143.003906 46.882812 144.375 46.492188 L 144.699219 46.425781 C 146.070312 45.96875 147.507812 46.75 147.898438 48.121094 C 148.359375 49.496094 147.574219 50.929688 146.203125 51.324219 L 145.875 51.386719 C 145.679688 51.519531 145.417969 51.519531 145.15625 51.519531 Z M 223.652344 49.691406 C 223.453125 49.691406 223.195312 49.691406 222.996094 49.625 L 222.671875 49.558594 C 221.300781 49.234375 220.449219 47.796875 220.84375 46.425781 C 221.167969 45.054688 222.605469 44.203125 223.976562 44.597656 L 224.304688 44.660156 C 225.675781 45.054688 226.523438 46.425781 226.132812 47.796875 C 225.804688 48.90625 224.761719 49.691406 223.652344 49.691406 Z M 157.890625 48.1875 C 156.714844 48.1875 155.671875 47.339844 155.410156 46.164062 C 155.082031 44.792969 155.996094 43.421875 157.367188 43.09375 L 157.628906 43.03125 C 159 42.703125 160.4375 43.617188 160.699219 44.988281 C 161.027344 46.359375 160.113281 47.730469 158.742188 48.058594 L 158.414062 48.121094 C 158.285156 48.121094 158.085938 48.1875 157.890625 48.1875 Z M 210.722656 46.882812 C 210.589844 46.882812 210.460938 46.882812 210.328125 46.816406 L 210.003906 46.75 C 208.632812 46.554688 207.652344 45.183594 207.847656 43.8125 C 208.109375 42.441406 209.414062 41.460938 210.785156 41.65625 L 211.113281 41.722656 C 212.484375 41.984375 213.464844 43.289062 213.203125 44.660156 C 213.070312 46.035156 211.960938 46.882812 210.722656 46.882812 Z M 170.953125 46.035156 C 169.644531 46.035156 168.535156 45.054688 168.40625 43.746094 C 168.210938 42.3125 169.253906 41.070312 170.691406 40.875 L 171.015625 40.808594 C 172.453125 40.613281 173.695312 41.65625 173.890625 43.09375 C 174.085938 44.53125 173.042969 45.773438 171.605469 45.96875 L 171.277344 46.035156 C 171.148438 45.96875 171.015625 46.035156 170.953125 46.035156 Z M 197.59375 45.378906 C 197.53125 45.378906 197.464844 45.378906 197.398438 45.378906 L 197.074219 45.378906 C 195.636719 45.316406 194.589844 44.074219 194.65625 42.636719 C 194.722656 41.199219 195.960938 40.15625 197.398438 40.222656 L 197.726562 40.222656 C 199.164062 40.285156 200.207031 41.527344 200.140625 42.964844 C 200.078125 44.335938 198.964844 45.378906 197.59375 45.378906 Z M 184.078125 45.117188 C 182.707031 45.117188 181.53125 44.007812 181.53125 42.574219 C 181.464844 41.136719 182.640625 39.960938 184.011719 39.894531 L 184.339844 39.894531 C 185.710938 39.828125 186.949219 41.003906 186.949219 42.375 C 187.015625 43.8125 185.839844 44.988281 184.46875 45.054688 L 184.078125 45.117188 C 184.144531 45.117188 184.144531 45.117188 184.078125 45.117188 Z M 184.078125 45.117188"/><g><g><g><path d="M 37.296875 -33.484375 C 33.953125 -35.222656 32.144531 -39.367188 31.875 -45.921875 C 31.875 -48.722656 30.472656 -49.992188 27.671875 -49.734375 L 1.796875 -48.53125 C 0.734375 -48.394531 -0.160156 -47.925781 -0.890625 -47.125 C -1.628906 -46.320312 -2 -45.316406 -2 -44.109375 C -1.195312 -34.484375 0.335938 -26.796875 2.609375 -21.046875 C 5.546875 -13.296875 11.09375 -7.484375 19.25 -3.609375 C 22.1875 -2.140625 25.394531 -1.171875 28.875 -0.703125 C 32.351562 -0.234375 36.296875 0 40.703125 0 C 49.796875 0 58.21875 -2.703125 65.96875 -8.109375 C 73.71875 -13.523438 79.195312 -20.710938 82.40625 -29.671875 C 84.945312 -36.628906 86.71875 -43.347656 87.71875 -49.828125 C 88.726562 -56.304688 89.566406 -64.226562 90.234375 -73.59375 L 90.640625 -79.40625 L 90.828125 -84.015625 C 91.097656 -88.554688 91.234375 -91.96875 91.234375 -94.25 L 91.234375 -135.140625 C 91.234375 -137.816406 89.894531 -139.15625 87.21875 -139.15625 L 60.75 -139.953125 C 59.550781 -139.953125 58.550781 -139.550781 57.75 -138.75 C 56.945312 -137.945312 56.546875 -137.015625 56.546875 -135.953125 L 55.9375 -81.8125 L 55.9375 -81.609375 C 55.9375 -76.929688 55.875 -73.390625 55.75 -70.984375 C 55.613281 -65.640625 55.144531 -59.957031 54.34375 -53.9375 C 53.800781 -49.65625 52.328125 -45.046875 49.921875 -40.109375 C 48.859375 -37.960938 47.457031 -36.1875 45.71875 -34.78125 C 43.976562 -33.382812 42.238281 -32.6875 40.5 -32.6875 C 39.300781 -32.6875 38.367188 -32.953125 37.703125 -33.484375 Z M 78.40625 -126.71875 C 78.40625 -126.71875 78.4375 -126.6875 78.5 -126.625 C 78.570312 -126.5625 78.609375 -126.460938 78.609375 -126.328125 L 78.40625 -125.921875 L 78.203125 -125.921875 L 77.59375 -126.328125 C 78 -126.328125 78.203125 -126.457031 78.203125 -126.71875 Z M 74.59375 -119.703125 C 74.320312 -119.703125 74.1875 -119.835938 74.1875 -120.109375 L 74.1875 -120.703125 C 74.320312 -120.703125 74.789062 -120.4375 75.59375 -119.90625 Z M 73.796875 -114.6875 L 74.1875 -114.6875 L 74.1875 -114.09375 L 73.796875 -114.09375 Z M 68.171875 -113.6875 C 68.304688 -113.820312 68.578125 -113.890625 68.984375 -113.890625 L 68.984375 -113.296875 L 67.78125 -113.296875 Z M 75.390625 -111.078125 C 75.390625 -110.816406 75.191406 -110.6875 74.796875 -110.6875 C 74.128906 -110.6875 73.859375 -110.953125 73.984375 -111.484375 L 73.984375 -111.890625 L 74.796875 -111.890625 L 75.390625 -111.484375 Z M 72.984375 -111.078125 C 72.984375 -110.546875 72.71875 -110.210938 72.1875 -110.078125 C 72.1875 -110.210938 72.148438 -110.515625 72.078125 -110.984375 C 72.015625 -111.453125 72.050781 -111.6875 72.1875 -111.6875 C 72.71875 -111.6875 72.984375 -111.484375 72.984375 -111.078125 Z M 70.984375 -106.265625 C 71.785156 -106.140625 72.1875 -105.941406 72.1875 -105.671875 C 72.1875 -105.535156 71.914062 -105.300781 71.375 -104.96875 C 70.84375 -104.632812 70.445312 -104.398438 70.1875 -104.265625 L 68.984375 -105.265625 L 69.375 -106.671875 L 70.1875 -106.46875 C 70.71875 -106.46875 70.984375 -106.398438 70.984375 -106.265625 Z M 75 -102.65625 L 75 -103.46875 L 76.203125 -103.46875 L 76.203125 -102.65625 Z M 74.1875 -100.859375 C 74.457031 -100.859375 74.59375 -100.722656 74.59375 -100.453125 L 72.59375 -100.453125 L 72.59375 -101.453125 L 73.984375 -101.453125 C 73.984375 -101.453125 74.015625 -101.421875 74.078125 -101.359375 C 74.148438 -101.296875 74.1875 -101.265625 74.1875 -101.265625 Z M 75.1875 -97.25 C 75.726562 -97.25 76.265625 -96.984375 76.796875 -96.453125 L 76 -95.84375 C 75.457031 -95.84375 75.125 -95.910156 75 -96.046875 L 74.59375 -96.046875 C 74.59375 -96.710938 74.789062 -97.113281 75.1875 -97.25 Z M 79.203125 -95.046875 C 80.140625 -95.046875 80.675781 -94.710938 80.8125 -94.046875 L 79 -93.84375 L 79 -94.4375 Z M 76 -92.234375 C 76 -92.097656 75.929688 -92.03125 75.796875 -92.03125 C 75.660156 -91.90625 75.394531 -91.84375 75 -91.84375 L 73.796875 -91.84375 C 73.523438 -91.96875 73.390625 -92.5 73.390625 -93.4375 L 76 -93.046875 Z M 76 -91.4375 C 76.132812 -91.4375 76.203125 -91.300781 76.203125 -91.03125 C 75.929688 -90.769531 75.394531 -90.640625 74.59375 -90.640625 L 74.59375 -89.625 L 72.984375 -89.625 L 72.984375 -89.828125 L 72.78125 -89.828125 L 72.59375 -90.03125 L 72.1875 -90.234375 L 72.1875 -91.03125 C 72.320312 -91.164062 72.519531 -91.234375 72.78125 -91.234375 C 73.050781 -91.234375 73.320312 -91.300781 73.59375 -91.4375 C 73.988281 -91.4375 74.382812 -91.503906 74.78125 -91.640625 C 75.1875 -91.773438 75.59375 -91.90625 76 -92.03125 Z M 72.78125 -89.4375 C 73.988281 -89.4375 74.59375 -89.097656 74.59375 -88.421875 L 72.78125 -88.03125 L 72.59375 -88.421875 L 72.1875 -89.03125 L 71.78125 -88.234375 C 71.644531 -88.359375 71.378906 -88.421875 70.984375 -88.421875 C 70.984375 -88.554688 70.914062 -88.625 70.78125 -88.625 L 70.578125 -88.625 L 70.578125 -89.03125 L 70.984375 -89.828125 C 71.253906 -89.828125 71.65625 -89.695312 72.1875 -89.4375 L 72.1875 -89.234375 C 72.582031 -89.234375 72.78125 -89.300781 72.78125 -89.4375 Z M 71.78125 -87.21875 C 72.851562 -87.21875 73.585938 -86.953125 73.984375 -86.421875 L 72.59375 -86.421875 L 72.59375 -86.625 L 72.1875 -86.828125 C 72.1875 -86.828125 72.148438 -86.890625 72.078125 -87.015625 C 72.015625 -87.148438 71.914062 -87.21875 71.78125 -87.21875 Z M 76.796875 -85.828125 C 77.066406 -85.828125 77.332031 -85.554688 77.59375 -85.015625 C 77.59375 -85.015625 77.5625 -84.976562 77.5 -84.90625 C 77.4375 -84.84375 77.40625 -84.8125 77.40625 -84.8125 L 77.203125 -84.625 C 77.203125 -84.625 77.164062 -84.585938 77.09375 -84.515625 C 77.03125 -84.453125 77 -84.421875 77 -84.421875 C 77 -84.421875 76.960938 -84.453125 76.890625 -84.515625 C 76.828125 -84.585938 76.796875 -84.625 76.796875 -84.625 L 76.390625 -84.625 L 76.390625 -85.015625 C 76.265625 -85.285156 76 -85.421875 75.59375 -85.421875 L 75.390625 -85.21875 L 75.1875 -85.21875 C 75.1875 -85.082031 75.125 -85.015625 75 -85.015625 L 74.1875 -85.828125 L 75 -86.421875 L 76.203125 -86.421875 Z M 83.609375 -85.828125 C 84.285156 -84.890625 84.351562 -84.351562 83.8125 -84.21875 L 82.40625 -84.21875 L 82.609375 -84.015625 L 82.609375 -83.421875 L 82.40625 -83.015625 L 82.21875 -82.609375 L 82.40625 -82.609375 C 82.8125 -82.210938 83.015625 -81.945312 83.015625 -81.8125 C 82.078125 -81.8125 80.671875 -82.078125 78.796875 -82.609375 C 79.472656 -82.878906 79.941406 -83.148438 80.203125 -83.421875 L 81.015625 -84.421875 L 80.609375 -84.421875 L 80.609375 -85.828125 L 82.21875 -86.015625 C 82.613281 -85.890625 83.078125 -85.828125 83.609375 -85.828125 Z M 71.78125 -84.421875 L 71.78125 -85.015625 L 72.78125 -85.421875 L 73.390625 -84.8125 Z M 73.796875 -83.015625 C 74.328125 -83.015625 74.59375 -82.75 74.59375 -82.21875 C 74.457031 -81.8125 74.054688 -81.609375 73.390625 -81.609375 L 72.59375 -82.40625 Z M 71.390625 -79.203125 L 70.578125 -79 L 69.375 -79.8125 L 68.578125 -80.203125 C 68.578125 -80.335938 68.441406 -80.472656 68.171875 -80.609375 L 67.78125 -80.8125 L 68.171875 -81.203125 L 68.171875 -81.609375 L 68.375 -81.609375 C 68.375 -81.609375 68.40625 -81.640625 68.46875 -81.703125 C 68.539062 -81.773438 68.578125 -81.8125 68.578125 -81.8125 L 69.78125 -81.8125 C 69.78125 -81.40625 70.046875 -81.203125 70.578125 -81.203125 L 71.78125 -80.8125 L 71.78125 -79.203125 Z M 72.59375 -80 L 72.59375 -81.015625 L 76.203125 -80.609375 Z M 75.390625 -77.203125 C 75.796875 -77.203125 76.066406 -77.132812 76.203125 -77 L 77 -76.796875 C 77 -76.523438 76.929688 -76.328125 76.796875 -76.203125 L 76.390625 -75.59375 L 74.59375 -75.59375 L 74.59375 -76.203125 C 74.59375 -76.734375 74.859375 -77.066406 75.390625 -77.203125 Z M 82.21875 -72.1875 L 81.8125 -71.984375 L 81.8125 -71.78125 C 81.675781 -71.78125 81.472656 -71.648438 81.203125 -71.390625 C 80.804688 -72.585938 80.609375 -73.851562 80.609375 -75.1875 L 79.8125 -74.796875 C 79.40625 -74.660156 79.003906 -74.660156 78.609375 -74.796875 C 78.609375 -75.460938 78.804688 -76.0625 79.203125 -76.59375 C 79.609375 -76.59375 80.078125 -76.460938 80.609375 -76.203125 L 80.609375 -75.1875 L 82.609375 -76.390625 L 82.8125 -76.203125 L 83.21875 -76.203125 L 83.8125 -76 L 83.8125 -74.390625 C 83.8125 -74.253906 83.679688 -74.054688 83.421875 -73.796875 L 83.21875 -73.796875 L 83.21875 -72.78125 Z M 74.1875 -70.984375 L 74.1875 -71.984375 L 75 -71.984375 L 75 -70.984375 Z M 76.203125 -68.984375 L 76.203125 -68.78125 L 74.59375 -68.78125 L 74.59375 -69.984375 L 76.59375 -69.78125 L 76.59375 -69.375 Z M 77.203125 -68.578125 L 77.203125 -69.375 L 78.40625 -69.375 L 78.40625 -68.578125 Z M 83.8125 -69.171875 C 83.8125 -68.503906 83.28125 -68.171875 82.21875 -68.171875 L 81.40625 -68.171875 L 81.40625 -68.375 L 81.203125 -68.578125 L 82.21875 -69.375 Z M 80.40625 -67.578125 C 80.40625 -67.441406 80.472656 -67.375 80.609375 -67.375 L 80.609375 -66.96875 L 78.796875 -66.578125 L 78.796875 -67.96875 L 80.203125 -67.96875 L 80.203125 -67.78125 Z M 71.390625 -66.96875 L 71.78125 -67.78125 L 73.390625 -67.578125 L 73.390625 -66.578125 Z M 74.59375 -65.375 L 76.59375 -66.578125 L 77 -65.171875 L 75.796875 -65.171875 Z M 83.21875 -65.375 C 84.019531 -65.375 84.617188 -65.101562 85.015625 -64.5625 L 84.421875 -64.359375 L 84.21875 -64.359375 C 84.21875 -64.234375 83.953125 -64.171875 83.421875 -64.171875 L 83.21875 -64.5625 L 83.21875 -64.96875 C 82.945312 -65.238281 82.945312 -65.375 83.21875 -65.375 Z M 76.203125 -63.359375 L 76.203125 -63.96875 L 77.203125 -63.96875 L 77.203125 -63.359375 Z M 80.8125 -63.359375 C 81.207031 -62.960938 81.207031 -62.5625 80.8125 -62.15625 L 80.203125 -62.5625 C 79.941406 -62.5625 79.8125 -62.695312 79.8125 -62.96875 C 80.207031 -62.96875 80.539062 -63.097656 80.8125 -63.359375 Z M 81.609375 -59.953125 C 81.335938 -59.679688 81.070312 -59.546875 80.8125 -59.546875 C 80.007812 -59.546875 79.472656 -59.75 79.203125 -60.15625 L 78.796875 -60.953125 L 79 -61.765625 L 79.40625 -61.953125 L 80 -61.765625 L 80.8125 -61.953125 L 81.40625 -61.765625 C 81.40625 -61.628906 81.539062 -61.5625 81.8125 -61.5625 L 81.8125 -60.15625 Z M 78.796875 -58.953125 L 78 -58.953125 L 78.609375 -59.953125 L 79.40625 -59.546875 Z M 83.8125 -58.546875 C 84.351562 -58.148438 84.625 -57.550781 84.625 -56.75 C 84.082031 -56.34375 83.410156 -56.34375 82.609375 -56.75 C 82.609375 -57.007812 82.539062 -57.207031 82.40625 -57.34375 L 82.40625 -58.546875 Z M 78.609375 -55.9375 C 78.867188 -55.8125 79.398438 -55.75 80.203125 -55.75 L 81.8125 -55.75 C 81.8125 -54.945312 81.476562 -54.546875 80.8125 -54.546875 L 79.609375 -54.546875 C 79.472656 -54.671875 79.003906 -54.734375 78.203125 -54.734375 Z M 83.421875 -53.34375 C 83.015625 -52.40625 82.210938 -51.734375 81.015625 -51.328125 L 79.203125 -51.53125 C 79.472656 -51.800781 79.875 -52.171875 80.40625 -52.640625 C 80.9375 -53.109375 81.335938 -53.34375 81.609375 -53.34375 Z M 83.421875 -49.734375 C 83.421875 -49.460938 83.484375 -49.257812 83.609375 -49.125 C 83.609375 -48.988281 83.675781 -48.921875 83.8125 -48.921875 L 83.8125 -48.53125 L 83.015625 -48.53125 C 83.015625 -48.394531 82.613281 -48.328125 81.8125 -48.328125 L 82.21875 -49.734375 Z M 68.578125 -42.90625 L 67.78125 -43.109375 L 68.171875 -43.71875 L 69.375 -43.515625 L 69.375 -42.515625 Z M 70.1875 -34.890625 L 69.375 -34.890625 C 68.976562 -35.285156 68.78125 -35.753906 68.78125 -36.296875 C 68.78125 -36.828125 68.847656 -37.296875 68.984375 -37.703125 L 67.78125 -38.5 C 67.78125 -38.894531 67.910156 -39.296875 68.171875 -39.703125 L 69.375 -39.703125 C 70.3125 -39.171875 70.78125 -38.4375 70.78125 -37.5 C 70.78125 -36.289062 70.847656 -35.554688 70.984375 -35.296875 Z M 62.5625 -35.484375 L 62.96875 -35.484375 L 62.96875 -34.6875 L 62.5625 -34.6875 Z M 57.75 -32.484375 C 57.75 -32.347656 57.613281 -32.28125 57.34375 -32.28125 L 56.34375 -32.484375 C 55.675781 -32.484375 55.078125 -32.617188 54.546875 -32.890625 L 53.734375 -32.890625 C 53.335938 -32.890625 53.070312 -32.953125 52.9375 -33.078125 C 52.800781 -33.078125 52.664062 -33.109375 52.53125 -33.171875 C 52.394531 -33.242188 52.265625 -33.28125 52.140625 -33.28125 C 52.140625 -33.550781 52.804688 -33.6875 54.140625 -33.6875 C 55.335938 -33.550781 56.140625 -33.550781 56.546875 -33.6875 L 57.546875 -33.6875 L 57.953125 -33.28125 L 57.953125 -32.484375 Z M 63.5625 -29.28125 C 63.425781 -29.539062 63.425781 -29.738281 63.5625 -29.875 L 64.765625 -29.46875 L 63.765625 -28.875 Z M 60.15625 -26.46875 C 60.15625 -26.0625 59.988281 -25.523438 59.65625 -24.859375 C 59.320312 -24.191406 58.882812 -23.859375 58.34375 -23.859375 C 57.28125 -23.859375 56.75 -24.328125 56.75 -25.265625 C 57.144531 -26.597656 57.742188 -27.265625 58.546875 -27.265625 C 58.953125 -27.265625 59.320312 -27.195312 59.65625 -27.0625 C 59.988281 -26.9375 60.15625 -26.738281 60.15625 -26.46875 Z M 60.15625 -26.46875" transform="translate(73.6 252.282)"/></g></g></g><g><g><g><path d="M 102.0625 -139.15625 C 102.863281 -138.082031 103.195312 -137.015625 103.0625 -135.953125 C 100.925781 -105.609375 99.65625 -82.613281 99.25 -66.96875 C 98.851562 -53.332031 98.65625 -33.015625 98.65625 -6.015625 C 98.65625 -3.335938 97.316406 -2 94.640625 -2 L 64.96875 -2 C 63.894531 -2 62.957031 -2.363281 62.15625 -3.09375 C 61.351562 -3.832031 60.953125 -4.804688 60.953125 -6.015625 L 60.953125 -8.421875 C 61.492188 -8.691406 61.765625 -8.890625 61.765625 -9.015625 L 61.765625 -9.625 L 61.15625 -9.625 L 61.359375 -15.234375 L 62.15625 -15.640625 C 62.15625 -15.773438 62.054688 -15.90625 61.859375 -16.03125 C 61.660156 -16.164062 61.492188 -16.300781 61.359375 -16.4375 L 63.5625 -58.546875 L 59.75 -58.15625 L 56.140625 -57.546875 C 55.335938 -57.546875 54.40625 -57.410156 53.34375 -57.140625 C 52.664062 -57.140625 51.660156 -57.007812 50.328125 -56.75 C 46.722656 -55.8125 42.113281 -54.335938 36.5 -52.328125 L 35.6875 -4.609375 C 35.6875 -1.929688 34.351562 -0.59375 31.6875 -0.59375 L 2.203125 0 C 0.867188 0 -0.160156 -0.398438 -0.890625 -1.203125 C -1.628906 -2.003906 -2 -3.070312 -2 -4.40625 L 6.8125 -135.34375 C 7.082031 -137.882812 8.421875 -139.15625 10.828125 -139.15625 L 36.5 -139.765625 C 37.832031 -139.765625 38.898438 -139.328125 39.703125 -138.453125 C 40.503906 -137.585938 40.835938 -136.617188 40.703125 -135.546875 L 37.5 -87.625 L 45.3125 -87.828125 L 45.71875 -87.21875 C 45.71875 -86.957031 46.050781 -86.828125 46.71875 -86.828125 C 47.125 -86.828125 47.390625 -87.09375 47.515625 -87.625 L 46.515625 -87.828125 L 65.171875 -88.625 L 67.96875 -136.546875 C 68.101562 -139.085938 69.441406 -140.359375 71.984375 -140.359375 L 99.046875 -140.359375 C 100.117188 -140.359375 101.125 -139.957031 102.0625 -139.15625 Z M 36.09375 -131.34375 C 35.820312 -131.601562 35.285156 -131.9375 34.484375 -132.34375 L 30.671875 -132.734375 L 30.28125 -132.734375 L 28.46875 -132.546875 L 27.265625 -132.546875 C 26.867188 -132.410156 26.203125 -132.34375 25.265625 -132.34375 L 24.0625 -132.34375 C 23.65625 -132.34375 23.453125 -132.410156 23.453125 -132.546875 L 23.453125 -133.140625 L 21.859375 -133.140625 C 21.191406 -132.472656 20.722656 -132.140625 20.453125 -132.140625 C 20.316406 -132.273438 19.78125 -132.207031 18.84375 -131.9375 C 20.1875 -131.40625 21.320312 -131.140625 22.25 -131.140625 L 23.65625 -131.53125 L 25.0625 -131.734375 C 25.195312 -131.734375 25.394531 -131.695312 25.65625 -131.625 C 25.925781 -131.5625 26.460938 -131.53125 27.265625 -131.53125 L 34.09375 -131.34375 L 34.6875 -130.9375 C 34.820312 -130.800781 35.085938 -130.734375 35.484375 -130.734375 Z M 16.4375 -129.53125 C 16.4375 -129.664062 16.367188 -129.800781 16.234375 -129.9375 C 16.109375 -130.070312 15.976562 -130.140625 15.84375 -130.140625 C 15.570312 -130.398438 15.4375 -130.597656 15.4375 -130.734375 L 15.640625 -131.140625 L 15.640625 -131.734375 L 14.4375 -131.53125 L 13.828125 -131.34375 L 13.828125 -129.328125 C 14.097656 -128.929688 14.5 -128.734375 15.03125 -128.734375 Z M 17.4375 -124.921875 L 17.4375 -125.921875 L 16.84375 -125.921875 L 16.84375 -124.921875 Z M 71.984375 -124.3125 C 71.984375 -124.050781 72.25 -123.648438 72.78125 -123.109375 L 73.796875 -123.921875 C 73.523438 -124.179688 73.390625 -124.3125 73.390625 -124.3125 Z M 84.21875 -122.515625 L 84.21875 -123.3125 L 83.609375 -123.3125 L 83.609375 -122.515625 Z M 80.40625 -119.90625 L 80.40625 -120.3125 L 79.8125 -120.3125 L 79.8125 -119.90625 Z M 79.203125 -116.09375 L 79.203125 -116.90625 L 78.796875 -116.90625 L 78.796875 -116.09375 Z M 21.046875 -114.09375 L 20.859375 -114.09375 L 20.453125 -113.6875 L 20.859375 -113.484375 Z M 32.28125 -110.078125 C 32.28125 -110.484375 32.082031 -110.753906 31.6875 -110.890625 C 31.414062 -111.148438 31.414062 -111.414062 31.6875 -111.6875 C 31.6875 -112.082031 31.617188 -112.347656 31.484375 -112.484375 L 30.671875 -112.484375 L 29.671875 -111.890625 L 29.671875 -110.6875 L 31.6875 -109.875 L 32.078125 -109.875 Z M 72.78125 -112.484375 L 72.78125 -112.09375 L 74.1875 -112.09375 L 74.1875 -112.484375 Z M 73.796875 -109.484375 L 75.390625 -109.484375 L 75.390625 -109.875 L 73.796875 -109.875 Z M 83.609375 -99.046875 C 83.609375 -98.785156 83.878906 -98.519531 84.421875 -98.25 C 85.222656 -97.71875 85.625 -97.453125 85.625 -97.453125 L 84.625 -98.453125 Z M 51.125 -85.421875 C 50.59375 -85.953125 50.0625 -86.21875 49.53125 -86.21875 C 49.394531 -86.082031 49.257812 -86.015625 49.125 -86.015625 L 49.125 -85.625 C 49.125 -85.488281 49.328125 -85.285156 49.734375 -85.015625 C 50.535156 -84.617188 50.867188 -84.488281 50.734375 -84.625 L 50.9375 -85.015625 Z M 56.140625 -84.625 L 56.546875 -84.625 L 56.140625 -85.015625 L 55.75 -84.8125 Z M 45.921875 -82.21875 C 46.722656 -81.945312 47.320312 -82.210938 47.71875 -83.015625 L 46.515625 -83.015625 C 46.117188 -82.878906 45.921875 -82.613281 45.921875 -82.21875 Z M 52.140625 -82.015625 C 52.398438 -81.878906 52.664062 -81.707031 52.9375 -81.5 C 53.207031 -81.300781 53.472656 -81.203125 53.734375 -81.203125 L 54.34375 -81.8125 L 54.140625 -82.21875 L 53.9375 -82.40625 L 52.328125 -82.40625 L 52.328125 -82.21875 Z M 49.921875 -79 C 50.722656 -79.800781 51.125 -80.269531 51.125 -80.40625 L 50.9375 -81.015625 C 50.800781 -81.015625 50.734375 -81.078125 50.734375 -81.203125 L 49.328125 -80.8125 C 49.054688 -80.8125 48.882812 -80.742188 48.8125 -80.609375 C 48.75 -80.472656 48.75 -80.304688 48.8125 -80.109375 C 48.882812 -79.910156 48.921875 -79.742188 48.921875 -79.609375 L 49.53125 -78.609375 C 49.53125 -78.609375 49.660156 -78.738281 49.921875 -79 Z M 46.3125 -80.8125 L 46.3125 -80.40625 L 47.328125 -80.40625 L 47.328125 -80.8125 Z M 63.15625 -79 C 63.832031 -79.664062 64.4375 -80.132812 64.96875 -80.40625 C 64.4375 -80.40625 64.171875 -80.472656 64.171875 -80.609375 C 63.765625 -80.203125 63.363281 -80 62.96875 -80 C 62.5625 -80 62.160156 -80.203125 61.765625 -80.609375 C 61.628906 -80.472656 61.328125 -80.238281 60.859375 -79.90625 C 60.390625 -79.570312 60.15625 -79.335938 60.15625 -79.203125 C 60.15625 -78.671875 60.289062 -78.335938 60.5625 -78.203125 C 62.164062 -78.335938 63.03125 -78.601562 63.15625 -79 Z M 67.96875 -79.609375 C 67.96875 -79.472656 68 -79.367188 68.0625 -79.296875 C 68.132812 -79.234375 68.171875 -79.203125 68.171875 -79.203125 C 68.171875 -79.203125 68.203125 -79.164062 68.265625 -79.09375 C 68.335938 -79.03125 68.375 -79 68.375 -79 L 68.984375 -79.609375 Z M 46.3125 -78.40625 C 46.3125 -78.664062 46.378906 -78.796875 46.515625 -78.796875 L 46.3125 -79.203125 L 45.921875 -79 L 45.71875 -79 Z M 61.359375 -73.984375 C 60.828125 -74.785156 60.160156 -75.1875 59.359375 -75.1875 L 58.953125 -75.1875 C 58.953125 -75.0625 58.816406 -75 58.546875 -75 C 58.148438 -75 57.75 -75.195312 57.34375 -75.59375 C 58.007812 -76 58.613281 -76.203125 59.15625 -76.203125 C 59.6875 -76.203125 60.019531 -75.929688 60.15625 -75.390625 C 60.15625 -75.660156 60.285156 -75.992188 60.546875 -76.390625 C 60.816406 -76.796875 61.085938 -77.066406 61.359375 -77.203125 L 60.15625 -77.203125 L 59.75 -77 C 59.21875 -77 58.785156 -77.128906 58.453125 -77.390625 C 58.117188 -77.660156 57.953125 -77.929688 57.953125 -78.203125 C 57.953125 -77.398438 57.484375 -77 56.546875 -77 L 56.546875 -77.203125 L 55.546875 -77.203125 C 55.410156 -77.203125 55.207031 -77.066406 54.9375 -76.796875 L 54.734375 -76.796875 L 54.546875 -76.59375 C 53.867188 -76.59375 53.53125 -76.328125 53.53125 -75.796875 L 54.734375 -75.59375 C 55.003906 -75.0625 55.539062 -74.660156 56.34375 -74.390625 C 56.875 -74.253906 57.675781 -73.851562 58.75 -73.1875 L 61.359375 -73.1875 Z M 64.171875 -78 L 65.375 -77.59375 L 65.375 -77.796875 L 64.5625 -78.203125 Z M 45.515625 -76.203125 C 45.242188 -76.203125 45.109375 -76.066406 45.109375 -75.796875 L 46.125 -75.796875 Z M 67.375 -74.796875 C 67.238281 -75.191406 66.835938 -75.390625 66.171875 -75.390625 L 65.765625 -74.796875 Z M 73.59375 -73.984375 C 74.125 -73.984375 74.523438 -74.050781 74.796875 -74.1875 C 75.054688 -74.1875 75.253906 -74.253906 75.390625 -74.390625 L 75.796875 -74.59375 L 75.390625 -75 C 75.128906 -75 74.929688 -75.0625 74.796875 -75.1875 L 74.1875 -75.1875 C 74.050781 -75.1875 73.847656 -75.21875 73.578125 -75.28125 C 73.316406 -75.351562 72.921875 -75.390625 72.390625 -75.390625 L 71.984375 -74.390625 L 72.78125 -73.984375 Z M 47.515625 -73.59375 L 47.515625 -72.984375 L 47.921875 -72.984375 L 47.921875 -73.59375 Z M 67.78125 -72.984375 L 66.765625 -72.984375 L 66.765625 -72.59375 L 67.78125 -72.59375 Z M 57.546875 -71.984375 L 57.546875 -71.390625 L 57.953125 -71.390625 L 57.953125 -71.984375 Z M 62.5625 -68.171875 C 62.957031 -68.578125 63.222656 -68.78125 63.359375 -68.78125 L 61.953125 -68.78125 L 60.359375 -69.171875 L 60.15625 -68.171875 C 60.15625 -68.171875 60.1875 -68.132812 60.25 -68.0625 C 60.320312 -68 60.359375 -67.96875 60.359375 -67.96875 L 60.75 -67.78125 L 61.5625 -67.578125 C 61.820312 -67.578125 62.15625 -67.773438 62.5625 -68.171875 Z M 67.171875 -67.78125 L 67.171875 -68.78125 L 65.375 -68.78125 L 64.96875 -68.171875 C 65.5 -67.910156 65.765625 -67.78125 65.765625 -67.78125 L 66.578125 -67.578125 Z M 80.40625 -65.765625 L 81.015625 -66.375 C 80.878906 -66.375 80.675781 -66.570312 80.40625 -66.96875 L 78.40625 -66.96875 L 78.203125 -66.765625 L 78.203125 -65.96875 Z M 84.625 -63.359375 C 84.625 -63.359375 84.6875 -63.320312 84.8125 -63.25 C 84.945312 -63.1875 85.285156 -63.425781 85.828125 -63.96875 L 85.421875 -64.171875 L 85.21875 -64.5625 C 84.6875 -64.5625 84.421875 -64.363281 84.421875 -63.96875 C 84.421875 -63.5625 84.488281 -63.359375 84.625 -63.359375 Z M 71.1875 -63.96875 C 71.050781 -64.101562 70.71875 -64.171875 70.1875 -64.171875 L 70.578125 -63.15625 C 70.847656 -63.289062 70.984375 -63.425781 70.984375 -63.5625 C 70.984375 -63.695312 71.050781 -63.832031 71.1875 -63.96875 Z M 94.4375 -62.15625 L 94.4375 -58.546875 C 94.4375 -58.285156 94.601562 -58.085938 94.9375 -57.953125 C 95.28125 -57.816406 95.582031 -57.816406 95.84375 -57.953125 L 95.84375 -62.15625 Z M 78.609375 -56.953125 L 79 -56.953125 L 79.203125 -57.75 L 78.796875 -57.75 Z M 25.671875 -55.75 L 26.875 -55.546875 L 26.875 -55.75 L 26.671875 -55.9375 L 26.671875 -56.140625 C 26.265625 -56.003906 25.726562 -55.9375 25.0625 -55.9375 L 24.0625 -55.9375 Z M 27.875 -54.546875 C 28.675781 -54.546875 29.207031 -54.675781 29.46875 -54.9375 L 29.46875 -55.546875 C 29.34375 -55.679688 29.007812 -55.75 28.46875 -55.75 L 28.078125 -55.546875 L 27.875 -55.34375 L 27.46875 -55.34375 L 27.46875 -54.546875 Z M 16.84375 -54.140625 C 17.113281 -53.867188 17.378906 -53.46875 17.640625 -52.9375 C 17.910156 -52.664062 18.078125 -52.429688 18.140625 -52.234375 C 18.210938 -52.035156 18.316406 -51.867188 18.453125 -51.734375 C 18.710938 -51.734375 18.910156 -51.800781 19.046875 -51.9375 L 20.046875 -52.53125 C 20.585938 -52.9375 20.859375 -53.335938 20.859375 -53.734375 C 20.859375 -54.140625 20.722656 -54.410156 20.453125 -54.546875 C 20.316406 -54.546875 20.210938 -54.609375 20.140625 -54.734375 C 20.078125 -54.867188 20.046875 -54.9375 20.046875 -54.9375 Z M 30.671875 -53.140625 L 30.078125 -53.34375 L 29.875 -53.34375 L 30.28125 -52.9375 Z M 76.796875 -48.328125 C 76.796875 -48.460938 76.660156 -48.660156 76.390625 -48.921875 L 75.796875 -49.328125 L 74.796875 -49.328125 L 75.1875 -48.125 L 76.203125 -48.125 L 76.390625 -48.328125 Z M 30.28125 -47.328125 L 30.28125 -46.71875 L 31.28125 -46.71875 L 31.875 -47.328125 Z M 79.203125 -42.515625 L 79.203125 -43.109375 L 78.796875 -43.90625 L 78.203125 -43.90625 L 78.203125 -42.515625 Z M 27.671875 -43.109375 C 26.867188 -42.578125 26.398438 -42.109375 26.265625 -41.703125 L 27.265625 -41.703125 L 28.671875 -42.515625 C 28.671875 -42.640625 28.570312 -42.769531 28.375 -42.90625 C 28.175781 -43.039062 27.941406 -43.109375 27.671875 -43.109375 Z M 66.171875 -41.3125 C 66.441406 -41.3125 66.578125 -41.375 66.578125 -41.5 L 66.578125 -41.703125 L 65.765625 -42.109375 C 65.234375 -41.835938 64.96875 -41.570312 64.96875 -41.3125 Z M 80.609375 -40.109375 C 80.878906 -40.109375 81.113281 -40.207031 81.3125 -40.40625 C 81.507812 -40.601562 81.609375 -40.769531 81.609375 -40.90625 C 81.078125 -40.90625 80.742188 -40.640625 80.609375 -40.109375 Z M 10.03125 -35.09375 L 10.03125 -35.6875 L 9.625 -35.6875 L 9.625 -35.09375 Z M 28.265625 -32.484375 C 29.066406 -32.878906 29.46875 -33.28125 29.46875 -33.6875 C 29.46875 -34.21875 29.132812 -34.550781 28.46875 -34.6875 L 28.078125 -34.484375 L 27.875 -33.890625 L 28.078125 -33.28125 Z M 64.5625 -33.484375 C 64.832031 -33.347656 65.164062 -33.28125 65.5625 -33.28125 C 65.695312 -33.414062 65.898438 -33.484375 66.171875 -33.484375 L 66.171875 -34.09375 L 65.375 -34.09375 C 64.832031 -33.820312 64.5625 -33.617188 64.5625 -33.484375 Z M 10.03125 -33.890625 L 9.625 -33.6875 L 10.03125 -33.484375 L 10.421875 -33.6875 Z M 83.015625 -33.28125 C 82.742188 -33.144531 82.675781 -33.015625 82.8125 -32.890625 L 83.015625 -32.484375 L 83.8125 -32.890625 L 83.8125 -33.078125 C 83.8125 -33.078125 83.773438 -33.109375 83.703125 -33.171875 C 83.640625 -33.242188 83.609375 -33.28125 83.609375 -33.28125 L 83.421875 -33.484375 C 83.285156 -33.484375 83.21875 -33.414062 83.21875 -33.28125 Z M 81.015625 -31.28125 C 80.742188 -31.550781 80.539062 -31.6875 80.40625 -31.6875 C 80.40625 -30.882812 80.472656 -30.347656 80.609375 -30.078125 L 80.609375 -29.46875 C 80.742188 -29.601562 81.078125 -29.671875 81.609375 -29.671875 L 81.609375 -30.671875 Z M 15.234375 -30.28125 C 15.503906 -30.28125 15.640625 -30.476562 15.640625 -30.875 L 15.234375 -31.078125 L 14.234375 -31.078125 C 14.234375 -30.679688 14.300781 -30.484375 14.4375 -30.484375 C 14.832031 -30.484375 15.097656 -30.414062 15.234375 -30.28125 Z M 28.078125 -29.875 C 28.335938 -29.875 28.335938 -30.007812 28.078125 -30.28125 C 27.804688 -30.539062 27.671875 -30.671875 27.671875 -30.671875 C 27.671875 -30.410156 27.535156 -30.210938 27.265625 -30.078125 C 27.265625 -29.941406 27.398438 -29.875 27.671875 -29.875 Z M 90.234375 -29.078125 C 89.960938 -29.335938 89.828125 -29.46875 89.828125 -29.46875 C 89.566406 -29.738281 89.367188 -29.875 89.234375 -29.875 L 88.421875 -29.46875 C 88.421875 -29.46875 88.390625 -29.4375 88.328125 -29.375 C 88.265625 -29.3125 88.234375 -29.28125 88.234375 -29.28125 L 88.03125 -29.28125 L 87.421875 -29.46875 C 87.421875 -29.738281 87.488281 -29.941406 87.625 -30.078125 L 87.828125 -30.28125 C 87.828125 -30.28125 87.859375 -30.3125 87.921875 -30.375 C 87.992188 -30.445312 88.03125 -30.484375 88.03125 -30.484375 L 87.421875 -30.484375 C 87.160156 -30.609375 86.925781 -30.640625 86.71875 -30.578125 C 86.519531 -30.515625 86.285156 -30.484375 86.015625 -30.484375 L 86.421875 -29.28125 C 86.421875 -29.144531 86.453125 -28.972656 86.515625 -28.765625 C 86.585938 -28.566406 86.757812 -28.335938 87.03125 -28.078125 C 87.425781 -28.078125 87.625 -28.140625 87.625 -28.265625 L 88.421875 -28.265625 C 89.097656 -28.265625 89.566406 -28.203125 89.828125 -28.078125 Z M 21.859375 -28.875 C 22.253906 -28.875 22.6875 -29.039062 23.15625 -29.375 C 23.625 -29.707031 23.992188 -30.078125 24.265625 -30.484375 L 23.859375 -30.28125 C 23.859375 -30.144531 23.59375 -30.078125 23.0625 -30.078125 C 22.789062 -30.078125 22.65625 -30.144531 22.65625 -30.28125 L 21.859375 -30.484375 C 21.191406 -30.484375 20.722656 -30.082031 20.453125 -29.28125 L 21.25 -29.078125 C 21.25 -28.941406 21.453125 -28.875 21.859375 -28.875 Z M 84.21875 -29.28125 L 84.015625 -30.078125 C 83.347656 -29.804688 83.015625 -29.539062 83.015625 -29.28125 L 84.21875 -28.875 Z M 80.609375 -28.078125 C 80.335938 -27.398438 80.132812 -27.0625 80 -27.0625 C 79.738281 -27.332031 79.40625 -27.398438 79 -27.265625 L 77.796875 -27.265625 C 77.929688 -27.128906 78.03125 -26.960938 78.09375 -26.765625 C 78.164062 -26.566406 78.269531 -26.46875 78.40625 -26.46875 C 78.664062 -26.195312 78.929688 -26.0625 79.203125 -26.0625 C 79.472656 -26.0625 79.675781 -26.128906 79.8125 -26.265625 L 80.609375 -26.46875 L 81.015625 -26.46875 L 81.40625 -26.875 L 81.40625 -27.46875 Z M 30.28125 -27.46875 C 30.28125 -27.46875 30.242188 -27.5 30.171875 -27.5625 C 30.109375 -27.632812 30.078125 -27.671875 30.078125 -27.671875 L 29.875 -27.875 L 29.46875 -27.46875 Z M 71.578125 -27.0625 L 71.1875 -26.875 L 71.578125 -26.671875 L 71.984375 -26.875 Z M 20.65625 -23.859375 C 21.050781 -24.128906 21.25 -24.332031 21.25 -24.46875 C 21.25 -24.726562 20.984375 -24.992188 20.453125 -25.265625 C 19.921875 -25.265625 19.519531 -25.332031 19.25 -25.46875 C 18.71875 -25.195312 18.453125 -24.863281 18.453125 -24.46875 C 18.453125 -24.195312 18.515625 -24.0625 18.640625 -24.0625 C 18.640625 -24.0625 18.671875 -24.023438 18.734375 -23.953125 C 18.804688 -23.890625 18.84375 -23.859375 18.84375 -23.859375 Z M 83.015625 -23.265625 C 83.679688 -22.859375 84.21875 -22.65625 84.625 -22.65625 C 85.019531 -22.65625 85.285156 -22.722656 85.421875 -22.859375 C 85.421875 -23.128906 85.488281 -23.265625 85.625 -23.265625 C 85.351562 -23.523438 85.019531 -23.65625 84.625 -23.65625 L 83.8125 -24.0625 Z M 10.03125 -22.25 L 10.03125 -23.265625 L 9.625 -23.265625 L 9.625 -22.25 Z M 32.6875 -22.65625 L 32.6875 -22.25 L 33.6875 -22.25 L 33.6875 -22.65625 Z M 75.390625 -22.453125 C 75.390625 -21.785156 75.859375 -21.453125 76.796875 -21.453125 C 76.398438 -21.722656 76.203125 -21.925781 76.203125 -22.0625 Z M 79.609375 -19.046875 C 79.609375 -19.046875 79.472656 -19.445312 79.203125 -20.25 C 79.066406 -20.382812 79 -20.648438 79 -21.046875 C 79 -20.921875 78.898438 -20.625 78.703125 -20.15625 C 78.503906 -19.6875 78.472656 -19.316406 78.609375 -19.046875 Z M 64.359375 -20.046875 L 64.5625 -20.046875 L 65.375 -20.25 C 65.375 -20.519531 65.101562 -20.65625 64.5625 -20.65625 L 64.359375 -20.65625 L 64.171875 -20.453125 L 64.359375 -20.25 Z M 7.21875 -19.84375 C 6.144531 -20.113281 5.410156 -20.25 5.015625 -20.25 C 4.609375 -20.25 4.40625 -20.050781 4.40625 -19.65625 C 4.8125 -19.113281 5.546875 -18.84375 6.609375 -18.84375 L 7.21875 -19.046875 Z M 86.421875 -16.4375 C 86.828125 -16.707031 87.03125 -16.976562 87.03125 -17.25 L 86.625 -18.046875 C 86.351562 -17.773438 86.148438 -17.640625 86.015625 -17.640625 L 85.421875 -17.25 C 84.617188 -16.84375 84.21875 -16.503906 84.21875 -16.234375 C 84.75 -16.234375 85.015625 -16.171875 85.015625 -16.046875 C 84.878906 -15.910156 84.945312 -15.640625 85.21875 -15.234375 L 85.625 -15.234375 C 85.625 -15.367188 85.753906 -15.4375 86.015625 -15.4375 C 85.753906 -15.84375 85.890625 -16.175781 86.421875 -16.4375 Z M 10.421875 -15.640625 L 9.828125 -15.640625 L 9.828125 -13.4375 C 9.828125 -13.832031 9.894531 -14.164062 10.03125 -14.4375 C 10.03125 -14.707031 10.09375 -14.90625 10.21875 -15.03125 Z M 68.984375 -15.03125 C 68.710938 -14.632812 68.910156 -14.4375 69.578125 -14.4375 L 69.984375 -14.84375 Z M 84.21875 -11.828125 L 84.8125 -12.4375 C 84.550781 -12.4375 84.421875 -12.566406 84.421875 -12.828125 L 83.421875 -12.828125 C 83.148438 -12.828125 83.015625 -12.695312 83.015625 -12.4375 C 83.148438 -12.164062 83.347656 -12.03125 83.609375 -12.03125 Z M 88.234375 -12.234375 L 88.234375 -11.234375 L 88.625 -11.234375 L 88.625 -12.234375 Z M 65.375 -10.828125 C 64.832031 -11.097656 64.429688 -11.234375 64.171875 -11.234375 L 63.359375 -11.421875 C 62.960938 -11.296875 62.796875 -11.097656 62.859375 -10.828125 C 62.929688 -10.554688 63.097656 -10.421875 63.359375 -10.421875 Z M 65.375 -7.625 C 66.175781 -8.15625 66.773438 -8.421875 67.171875 -8.421875 C 67.835938 -8.554688 68.441406 -8.957031 68.984375 -9.625 L 68.984375 -10.03125 L 68.78125 -10.03125 C 68.507812 -10.03125 68.304688 -9.960938 68.171875 -9.828125 L 67.375 -9.625 L 66.171875 -10.03125 C 65.765625 -9.894531 65.460938 -9.523438 65.265625 -8.921875 C 65.066406 -8.316406 65.101562 -7.882812 65.375 -7.625 Z M 83.015625 -7.015625 C 82.609375 -7.285156 82.40625 -7.421875 82.40625 -7.421875 L 81.8125 -7.421875 L 81.8125 -6.8125 Z M 87.03125 -6.421875 C 86.894531 -6.421875 86.554688 -6.550781 86.015625 -6.8125 C 85.890625 -6.945312 85.625 -7.015625 85.21875 -7.015625 C 84.945312 -7.015625 84.8125 -6.945312 84.8125 -6.8125 C 84.8125 -6.8125 84.78125 -6.773438 84.71875 -6.703125 C 84.65625 -6.640625 84.625 -6.609375 84.625 -6.609375 L 84.625 -6.015625 L 84.8125 -5.609375 L 85.015625 -5.40625 L 87.03125 -6.015625 Z M 70.578125 -4.609375 C 70.710938 -4.609375 70.984375 -4.941406 71.390625 -5.609375 C 70.316406 -5.609375 69.378906 -6.007812 68.578125 -6.8125 C 68.171875 -6.414062 67.96875 -6.082031 67.96875 -5.8125 C 67.96875 -5.539062 68.164062 -5.269531 68.5625 -5 C 68.96875 -4.738281 69.375 -4.609375 69.78125 -4.609375 Z M 70.578125 -4.609375" transform="translate(172.45 252.282)"/></g></g></g></svg>