<svg xmlns="http://www.w3.org/2000/svg" width="375" viewBox="0 0 375 375" height="375" version="1.0"><defs><clipPath id="a"><path d="M 56.992188 112.101562 L 317.992188 112.101562 L 317.992188 262.851562 L 56.992188 262.851562 Z M 56.992188 112.101562"/></clipPath><clipPath id="b"><path d="M 72.816406 72.816406 L 302.316406 72.816406 L 302.316406 302.316406 L 72.816406 302.316406 Z M 72.816406 72.816406"/></clipPath></defs><g clip-path="url(#a)"><path d="M 309.921875 221.746094 C 306.609375 233.007812 301.558594 243.695312 295.289062 253.539062 C 290.113281 261.550781 284.226562 269.078125 277.613281 275.925781 C 276.757812 276.863281 275.804688 277.699219 274.898438 278.582031 C 273.972656 279.449219 273.074219 280.347656 272.132812 281.191406 L 269.265625 283.683594 L 267.832031 284.933594 L 266.347656 286.113281 L 263.378906 288.488281 C 262.371094 289.253906 261.332031 289.980469 260.316406 290.734375 C 258.300781 292.277344 256.160156 293.632812 254.0625 295.058594 C 253.757812 295.261719 253.441406 295.472656 253.109375 295.699219 C 252.769531 295.902344 252.414062 296.117188 252.042969 296.339844 C 251.300781 296.78125 250.507812 297.257812 249.65625 297.765625 C 247.980469 298.816406 246 299.808594 243.859375 300.945312 C 243.320312 301.222656 242.78125 301.527344 242.210938 301.800781 C 241.640625 302.066406 241.054688 302.335938 240.460938 302.613281 C 239.273438 303.160156 238.039062 303.730469 236.765625 304.320312 C 234.160156 305.339844 231.441406 306.5625 228.476562 307.511719 C 216.769531 311.757812 202.15625 314.382812 187.492188 314.441406 C 172.832031 314.382812 158.21875 311.757812 146.515625 307.511719 C 143.546875 306.5625 140.828125 305.339844 138.21875 304.320312 C 136.949219 303.730469 135.71875 303.160156 134.527344 302.613281 C 133.933594 302.335938 133.347656 302.066406 132.777344 301.800781 C 132.207031 301.527344 131.667969 301.222656 131.128906 300.945312 C 128.988281 299.808594 127.003906 298.816406 125.332031 297.765625 C 124.484375 297.257812 123.6875 296.78125 122.945312 296.339844 C 122.578125 296.117188 122.222656 295.902344 121.878906 295.699219 C 121.546875 295.476562 121.230469 295.261719 120.929688 295.058594 C 112.960938 289.839844 105.480469 283.910156 98.675781 277.25 C 91.503906 270.082031 85.230469 262.054688 79.699219 253.542969 C 73.429688 243.699219 68.375 233.007812 65.066406 221.746094 C 61.621094 210.515625 60.03125 198.734375 59.925781 186.949219 C 60.03125 175.164062 61.621094 163.378906 65.066406 152.152344 C 68.375 140.886719 73.429688 130.199219 79.699219 120.355469 C 84.875 112.347656 90.757812 104.816406 97.375 97.96875 C 98.230469 97.035156 99.183594 96.195312 100.089844 95.3125 C 101.015625 94.445312 101.914062 93.550781 102.855469 92.707031 L 105.722656 90.210938 L 107.15625 88.964844 L 108.640625 87.78125 L 111.609375 85.410156 C 112.617188 84.640625 113.65625 83.914062 114.671875 83.160156 C 116.6875 81.621094 118.828125 80.265625 120.925781 78.839844 C 121.230469 78.632812 121.546875 78.421875 121.878906 78.199219 C 122.21875 77.992188 122.574219 77.78125 122.945312 77.558594 C 123.6875 77.113281 124.480469 76.640625 125.332031 76.132812 C 127.003906 75.078125 128.988281 74.089844 131.128906 72.949219 C 131.667969 72.671875 132.207031 72.371094 132.777344 72.097656 C 133.347656 71.832031 133.929688 71.558594 134.527344 71.285156 C 135.714844 70.734375 136.949219 70.164062 138.21875 69.578125 C 140.828125 68.558594 143.546875 67.335938 146.511719 66.382812 C 158.21875 62.140625 172.832031 59.515625 187.492188 59.453125 C 202.15625 59.515625 216.769531 62.140625 228.472656 66.382812 C 231.441406 67.335938 234.160156 68.558594 236.765625 69.578125 C 238.039062 70.164062 239.269531 70.734375 240.460938 71.285156 C 241.054688 71.558594 241.640625 71.832031 242.210938 72.097656 C 242.78125 72.367188 243.320312 72.671875 243.859375 72.949219 C 246 74.085938 247.980469 75.078125 249.65625 76.132812 C 250.503906 76.640625 251.300781 77.113281 252.042969 77.558594 C 252.410156 77.78125 252.765625 77.992188 253.109375 78.199219 C 253.441406 78.421875 253.757812 78.632812 254.058594 78.835938 C 262.023438 84.058594 269.507812 89.988281 276.3125 96.648438 C 283.484375 103.816406 289.757812 111.84375 295.289062 120.355469 C 301.558594 130.199219 306.609375 140.886719 309.921875 152.152344 C 313.367188 163.378906 314.957031 175.164062 315.058594 186.949219 C 314.957031 198.734375 313.367188 210.515625 309.921875 221.746094 Z M 317.992188 186.863281 L 317.992188 186.851562 C 317.882812 174.820312 316.265625 162.777344 312.757812 151.296875 C 309.386719 139.78125 304.222656 128.851562 297.785156 118.8125 L 294.691406 114.160156 C 294.691406 114.160156 293.796875 112.910156 292.457031 111.035156 C 291.164062 109.117188 289.1875 106.757812 287.300781 104.332031 C 285.265625 102.027344 283.316406 99.648438 281.675781 98.027344 C 280.082031 96.363281 279.019531 95.253906 279.019531 95.253906 C 279.019531 95.253906 278.75 94.980469 278.265625 94.515625 C 277.78125 94.046875 277.089844 93.378906 276.261719 92.582031 C 274.644531 90.933594 272.300781 88.949219 270 86.914062 C 268.816406 85.933594 267.601562 84.992188 266.480469 84.089844 C 265.914062 83.640625 265.371094 83.207031 264.855469 82.796875 C 264.320312 82.410156 263.8125 82.046875 263.34375 81.707031 C 261.476562 80.359375 260.230469 79.460938 260.230469 79.460938 C 260.230469 79.460938 259.957031 79.242188 259.519531 78.957031 C 259.085938 78.664062 258.503906 78.277344 257.925781 77.890625 C 256.765625 77.113281 255.605469 76.335938 255.605469 76.335938 C 255.296875 76.128906 254.972656 75.910156 254.636719 75.679688 C 254.285156 75.46875 253.921875 75.25 253.546875 75.023438 C 252.789062 74.566406 251.972656 74.078125 251.109375 73.558594 C 249.394531 72.476562 247.367188 71.457031 245.179688 70.292969 C 244.628906 70.007812 244.074219 69.695312 243.492188 69.417969 C 242.910156 69.144531 242.3125 68.863281 241.703125 68.582031 C 240.488281 68.019531 239.226562 67.433594 237.921875 66.832031 C 235.257812 65.78125 232.472656 64.53125 229.4375 63.554688 C 217.457031 59.203125 202.496094 56.507812 187.492188 56.449219 C 172.492188 56.507812 157.53125 59.203125 145.546875 63.554688 C 142.515625 64.53125 139.730469 65.785156 137.0625 66.832031 C 135.761719 67.433594 134.5 68.019531 133.285156 68.582031 C 132.675781 68.867188 132.078125 69.144531 131.492188 69.417969 C 130.910156 69.695312 130.359375 70.007812 129.808594 70.292969 C 127.617188 71.457031 125.589844 72.476562 123.878906 73.558594 C 123.011719 74.078125 122.199219 74.566406 121.441406 75.023438 C 121.066406 75.25 120.699219 75.46875 120.351562 75.679688 C 120.011719 75.910156 119.6875 76.128906 119.378906 76.335938 C 119.378906 76.335938 118.222656 77.113281 117.0625 77.890625 C 116.480469 78.277344 115.902344 78.664062 115.46875 78.957031 C 115.03125 79.242188 114.757812 79.460938 114.757812 79.460938 C 114.757812 79.460938 113.511719 80.359375 111.644531 81.707031 C 111.175781 82.046875 110.667969 82.410156 110.132812 82.796875 C 109.617188 83.207031 109.074219 83.640625 108.507812 84.089844 C 107.386719 84.992188 106.171875 85.933594 104.988281 86.914062 C 102.6875 88.949219 100.34375 90.933594 98.726562 92.582031 C 97.894531 93.378906 97.207031 94.046875 96.722656 94.515625 C 96.238281 94.980469 95.96875 95.253906 95.96875 95.253906 C 95.96875 95.253906 94.90625 96.363281 93.3125 98.027344 C 91.671875 99.648438 89.722656 102.027344 87.6875 104.332031 C 85.800781 106.757812 83.820312 109.121094 82.53125 111.035156 C 81.1875 112.910156 80.292969 114.164062 80.292969 114.164062 L 77.199219 118.8125 C 70.765625 128.851562 65.601562 139.785156 62.226562 151.296875 C 58.722656 162.78125 57.105469 174.820312 56.996094 186.851562 L 56.996094 186.863281 L 56.992188 186.949219 L 56.996094 187.035156 L 56.996094 187.046875 C 57.105469 199.078125 58.722656 211.117188 62.226562 222.597656 C 65.601562 234.113281 70.765625 245.042969 77.199219 255.085938 L 80.296875 259.734375 C 80.296875 259.734375 81.191406 260.988281 82.53125 262.863281 C 83.824219 264.777344 85.800781 267.136719 87.6875 269.5625 C 89.722656 271.867188 91.671875 274.246094 93.3125 275.867188 C 94.90625 277.53125 95.96875 278.640625 95.96875 278.640625 C 95.96875 278.640625 96.238281 278.917969 96.722656 279.382812 C 97.207031 279.847656 97.894531 280.515625 98.726562 281.316406 C 100.34375 282.964844 102.6875 284.945312 104.988281 286.980469 C 106.171875 287.964844 107.386719 288.902344 108.507812 289.808594 C 109.074219 290.253906 109.617188 290.6875 110.132812 291.101562 C 110.667969 291.488281 111.175781 291.851562 111.644531 292.1875 C 113.511719 293.539062 114.757812 294.4375 114.757812 294.4375 C 114.757812 294.4375 115.03125 294.65625 115.46875 294.941406 C 115.902344 295.230469 116.484375 295.617188 117.0625 296.007812 C 118.222656 296.78125 119.382812 297.558594 119.382812 297.558594 C 119.691406 297.769531 120.015625 297.988281 120.351562 298.214844 C 120.703125 298.425781 121.066406 298.648438 121.441406 298.875 C 122.199219 299.332031 123.015625 299.820312 123.878906 300.339844 C 125.59375 301.417969 127.621094 302.4375 129.808594 303.605469 C 130.359375 303.890625 130.914062 304.199219 131.496094 304.480469 C 132.078125 304.753906 132.675781 305.03125 133.285156 305.316406 C 134.5 305.878906 135.761719 306.460938 137.0625 307.066406 C 139.730469 308.113281 142.515625 309.363281 145.550781 310.339844 C 157.53125 314.691406 172.492188 317.386719 187.492188 317.449219 C 202.496094 317.386719 217.457031 314.691406 229.441406 310.339844 C 232.472656 309.363281 235.257812 308.113281 237.925781 307.066406 C 239.226562 306.460938 240.488281 305.878906 241.703125 305.3125 C 242.3125 305.03125 242.910156 304.753906 243.496094 304.480469 C 244.078125 304.199219 244.628906 303.890625 245.179688 303.605469 C 247.371094 302.4375 249.394531 301.417969 251.109375 300.339844 C 251.976562 299.820312 252.789062 299.328125 253.546875 298.875 C 253.921875 298.648438 254.289062 298.425781 254.636719 298.214844 C 254.976562 297.984375 255.300781 297.769531 255.609375 297.558594 C 255.609375 297.558594 256.765625 296.78125 257.925781 296.007812 C 258.507812 295.617188 259.085938 295.230469 259.519531 294.941406 C 259.957031 294.65625 260.230469 294.4375 260.230469 294.4375 C 260.230469 294.4375 261.476562 293.539062 263.34375 292.1875 C 263.8125 291.851562 264.320312 291.488281 264.855469 291.101562 C 265.371094 290.6875 265.914062 290.253906 266.480469 289.808594 C 267.601562 288.902344 268.816406 287.964844 270 286.980469 C 272.300781 284.945312 274.644531 282.964844 276.261719 281.316406 C 277.089844 280.515625 277.78125 279.847656 278.265625 279.382812 C 278.75 278.917969 279.019531 278.640625 279.019531 278.640625 C 279.019531 278.640625 280.082031 277.53125 281.675781 275.867188 C 283.316406 274.246094 285.265625 271.867188 287.300781 269.5625 C 289.1875 267.136719 291.164062 264.777344 292.457031 262.863281 C 293.796875 260.984375 294.691406 259.734375 294.691406 259.734375 L 297.785156 255.085938 C 304.222656 245.042969 309.386719 234.113281 312.757812 222.597656 C 316.265625 211.117188 317.882812 199.078125 317.992188 187.042969 L 317.992188 186.863281"/></g><g clip-path="url(#b)"><path d="M 187.589844 302.316406 C 156.953125 302.316406 128.101562 290.382812 106.425781 268.707031 C 84.753906 247.035156 72.816406 218.226562 72.816406 187.589844 C 72.816406 156.953125 84.753906 128.101562 106.425781 106.425781 C 128.101562 84.753906 156.90625 72.816406 187.589844 72.816406 C 218.273438 72.816406 247.035156 84.753906 268.707031 106.425781 C 290.382812 128.101562 302.316406 156.90625 302.316406 187.589844 C 302.316406 218.273438 290.382812 247.035156 268.707031 268.707031 C 247.035156 290.382812 218.226562 302.316406 187.589844 302.316406 Z M 187.589844 79.675781 C 158.78125 79.675781 131.667969 90.878906 111.273438 111.273438 C 90.878906 131.667969 79.675781 158.738281 79.675781 187.589844 C 79.675781 216.445312 90.878906 243.511719 111.273438 263.90625 C 131.667969 284.300781 158.738281 295.503906 187.589844 295.503906 C 216.445312 295.503906 243.511719 284.300781 263.90625 263.90625 C 284.300781 243.511719 295.503906 216.445312 295.503906 187.589844 C 295.503906 158.738281 284.300781 131.667969 263.90625 111.273438 C 243.46875 90.878906 216.398438 79.675781 187.589844 79.675781 Z M 187.589844 79.675781"/></g><path d="M 185.304688 288.003906 L 185.03125 288.003906 C 184.023438 287.960938 183.246094 287.136719 183.292969 286.175781 C 183.335938 285.214844 184.113281 284.4375 185.074219 284.4375 C 185.074219 284.4375 185.121094 284.4375 185.121094 284.4375 L 185.351562 284.4375 C 186.355469 284.484375 187.132812 285.308594 187.085938 286.265625 C 187.085938 287.226562 186.308594 288.003906 185.304688 288.003906 Z M 194.359375 287.777344 C 193.398438 287.777344 192.621094 287.042969 192.574219 286.085938 C 192.527344 285.078125 193.261719 284.253906 194.265625 284.164062 L 194.449219 284.164062 C 195.457031 284.074219 196.324219 284.851562 196.371094 285.808594 C 196.460938 286.816406 195.683594 287.683594 194.722656 287.730469 L 194.496094 287.730469 C 194.402344 287.777344 194.359375 287.777344 194.359375 287.777344 Z M 176.113281 287.363281 C 176.066406 287.363281 175.976562 287.363281 175.882812 287.363281 L 175.65625 287.320312 C 174.648438 287.183594 173.964844 286.3125 174.101562 285.308594 C 174.238281 284.300781 175.105469 283.617188 176.113281 283.753906 L 176.339844 283.796875 C 177.347656 283.890625 178.035156 284.804688 177.941406 285.808594 C 177.757812 286.679688 176.980469 287.363281 176.113281 287.363281 Z M 203.503906 286.726562 C 202.632812 286.726562 201.855469 286.085938 201.71875 285.214844 C 201.535156 284.253906 202.222656 283.296875 203.230469 283.15625 L 203.457031 283.113281 C 204.417969 282.976562 205.378906 283.617188 205.515625 284.621094 C 205.652344 285.628906 205.011719 286.542969 204.007812 286.679688 L 203.777344 286.726562 C 203.730469 286.726562 203.640625 286.726562 203.503906 286.726562 Z M 166.96875 285.855469 C 166.832031 285.855469 166.738281 285.855469 166.601562 285.808594 L 166.375 285.765625 C 165.414062 285.535156 164.773438 284.574219 165 283.617188 C 165.230469 282.65625 166.191406 282.015625 167.152344 282.242188 L 167.378906 282.289062 C 168.339844 282.519531 168.980469 283.433594 168.75 284.4375 C 168.566406 285.308594 167.789062 285.855469 166.96875 285.855469 Z M 212.558594 284.851562 C 211.734375 284.851562 211.003906 284.300781 210.820312 283.476562 C 210.589844 282.519531 211.140625 281.511719 212.144531 281.285156 L 212.328125 281.238281 C 213.289062 280.964844 214.292969 281.558594 214.523438 282.519531 C 214.796875 283.476562 214.203125 284.484375 213.242188 284.710938 L 213.015625 284.757812 C 212.875 284.804688 212.695312 284.851562 212.558594 284.851562 Z M 158.050781 283.523438 C 157.867188 283.523438 157.683594 283.476562 157.503906 283.433594 L 157.320312 283.386719 C 156.359375 283.066406 155.8125 282.0625 156.128906 281.101562 C 156.449219 280.140625 157.410156 279.636719 158.371094 279.910156 L 158.601562 279.957031 C 159.558594 280.230469 160.0625 281.285156 159.789062 282.199219 C 159.515625 283.019531 158.78125 283.523438 158.050781 283.523438 Z M 221.382812 282.0625 C 220.652344 282.0625 219.964844 281.601562 219.691406 280.871094 C 219.371094 279.957031 219.828125 278.90625 220.789062 278.585938 L 220.96875 278.492188 C 221.886719 278.175781 222.9375 278.632812 223.300781 279.546875 C 223.621094 280.460938 223.164062 281.511719 222.25 281.878906 L 222.023438 281.96875 C 221.792969 282.0625 221.609375 282.0625 221.382812 282.0625 Z M 149.363281 280.367188 C 149.132812 280.367188 148.90625 280.324219 148.675781 280.230469 L 148.449219 280.140625 C 147.535156 279.730469 147.121094 278.675781 147.488281 277.761719 C 147.898438 276.847656 148.953125 276.4375 149.867188 276.800781 L 150.050781 276.894531 C 150.964844 277.257812 151.421875 278.3125 151.007812 279.269531 C 150.734375 279.910156 150.050781 280.367188 149.363281 280.367188 Z M 229.933594 278.492188 C 229.246094 278.492188 228.605469 278.128906 228.332031 277.488281 C 227.921875 276.574219 228.285156 275.523438 229.15625 275.066406 L 229.382812 274.972656 C 230.296875 274.5625 231.351562 274.925781 231.808594 275.84375 C 232.21875 276.757812 231.851562 277.808594 230.9375 278.21875 L 230.757812 278.3125 C 230.4375 278.449219 230.160156 278.492188 229.933594 278.492188 Z M 140.996094 276.34375 C 140.722656 276.34375 140.402344 276.253906 140.125 276.117188 L 139.945312 276.023438 C 139.074219 275.566406 138.753906 274.46875 139.210938 273.601562 C 139.667969 272.734375 140.765625 272.414062 141.636719 272.871094 L 141.820312 272.960938 C 142.6875 273.417969 143.007812 274.515625 142.550781 275.382812 C 142.277344 276.023438 141.636719 276.34375 140.996094 276.34375 Z M 238.070312 274.148438 C 237.476562 274.148438 236.882812 273.828125 236.515625 273.28125 C 236.015625 272.414062 236.289062 271.316406 237.113281 270.8125 L 237.292969 270.675781 C 238.164062 270.171875 239.261719 270.445312 239.765625 271.316406 C 240.265625 272.183594 239.992188 273.28125 239.125 273.785156 L 238.941406 273.875 C 238.710938 274.058594 238.390625 274.148438 238.070312 274.148438 Z M 133.039062 271.589844 C 132.71875 271.589844 132.351562 271.496094 132.03125 271.269531 L 131.851562 271.132812 C 131.027344 270.582031 130.796875 269.484375 131.347656 268.617188 C 131.894531 267.792969 132.992188 267.566406 133.863281 268.113281 L 134.042969 268.25 C 134.867188 268.800781 135.097656 269.898438 134.546875 270.765625 C 134.226562 271.316406 133.632812 271.589844 133.039062 271.589844 Z M 245.800781 269.027344 C 245.25 269.027344 244.703125 268.753906 244.335938 268.296875 C 243.742188 267.519531 243.925781 266.375 244.703125 265.78125 L 244.886719 265.644531 C 245.707031 265.050781 246.804688 265.234375 247.398438 266.011719 C 247.996094 266.832031 247.8125 267.929688 247.035156 268.527344 L 246.851562 268.664062 C 246.53125 268.9375 246.164062 269.027344 245.800781 269.027344 Z M 125.585938 266.148438 C 125.175781 266.148438 124.761719 266.011719 124.441406 265.738281 L 124.257812 265.597656 C 123.480469 264.960938 123.34375 263.863281 123.984375 263.085938 C 124.625 262.308594 125.722656 262.167969 126.5 262.808594 L 126.683594 262.945312 C 127.460938 263.585938 127.550781 264.730469 126.957031 265.460938 C 126.636719 265.917969 126.132812 266.148438 125.585938 266.148438 Z M 252.980469 263.222656 C 252.476562 263.222656 251.972656 263.039062 251.652344 262.628906 C 251.011719 261.894531 251.058594 260.753906 251.789062 260.113281 L 251.972656 259.976562 C 252.703125 259.289062 253.847656 259.378906 254.535156 260.113281 C 255.21875 260.84375 255.128906 261.988281 254.394531 262.671875 L 254.257812 262.808594 C 253.847656 263.085938 253.390625 263.222656 252.980469 263.222656 Z M 118.679688 259.976562 C 118.222656 259.976562 117.765625 259.792969 117.445312 259.472656 L 117.261719 259.289062 C 116.53125 258.601562 116.53125 257.460938 117.261719 256.726562 C 117.949219 255.996094 119.09375 255.996094 119.824219 256.726562 L 119.960938 256.867188 C 120.691406 257.550781 120.691406 258.695312 120.007812 259.425781 C 119.640625 259.835938 119.136719 259.976562 118.679688 259.976562 Z M 259.609375 256.773438 C 259.152344 256.773438 258.742188 256.636719 258.375 256.269531 C 257.644531 255.585938 257.597656 254.441406 258.28125 253.710938 L 258.421875 253.527344 C 259.105469 252.796875 260.25 252.75 260.980469 253.4375 C 261.710938 254.121094 261.757812 255.265625 261.074219 255.996094 L 260.933594 256.132812 C 260.570312 256.589844 260.066406 256.773438 259.609375 256.773438 Z M 112.371094 253.253906 C 111.867188 253.253906 111.363281 253.023438 111 252.613281 L 110.863281 252.429688 C 110.222656 251.652344 110.3125 250.554688 111.089844 249.871094 C 111.867188 249.230469 112.964844 249.320312 113.652344 250.097656 L 113.789062 250.28125 C 114.429688 251.058594 114.335938 252.15625 113.558594 252.839844 C 113.195312 253.117188 112.78125 253.253906 112.371094 253.253906 Z M 265.597656 249.730469 C 265.234375 249.730469 264.820312 249.59375 264.5 249.367188 C 263.722656 248.773438 263.542969 247.628906 264.183594 246.851562 L 264.320312 246.667969 C 264.914062 245.890625 266.054688 245.753906 266.832031 246.347656 C 267.609375 246.941406 267.75 248.085938 267.152344 248.863281 L 267.015625 249.046875 C 266.695312 249.503906 266.148438 249.730469 265.597656 249.730469 Z M 106.746094 245.9375 C 106.199219 245.9375 105.601562 245.664062 105.28125 245.160156 L 105.144531 244.976562 C 104.597656 244.152344 104.78125 243.054688 105.601562 242.460938 C 106.425781 241.914062 107.523438 242.097656 108.117188 242.917969 L 108.253906 243.101562 C 108.804688 243.925781 108.621094 245.023438 107.796875 245.617188 C 107.433594 245.800781 107.066406 245.9375 106.746094 245.9375 Z M 270.902344 242.1875 C 270.582031 242.1875 270.261719 242.097656 269.941406 241.914062 C 269.121094 241.363281 268.847656 240.265625 269.394531 239.445312 L 269.53125 239.261719 C 270.082031 238.4375 271.179688 238.164062 272 238.710938 C 272.824219 239.261719 273.097656 240.359375 272.550781 241.179688 L 272.414062 241.363281 C 272.09375 241.867188 271.496094 242.1875 270.902344 242.1875 Z M 101.761719 238.117188 C 101.121094 238.117188 100.527344 237.796875 100.207031 237.203125 L 100.117188 237.019531 C 99.613281 236.152344 99.933594 235.054688 100.800781 234.550781 C 101.671875 234.046875 102.769531 234.367188 103.269531 235.238281 L 103.363281 235.421875 C 103.867188 236.289062 103.546875 237.386719 102.675781 237.890625 C 102.402344 238.027344 102.082031 238.117188 101.761719 238.117188 Z M 275.523438 234.140625 C 275.246094 234.140625 274.972656 234.09375 274.699219 233.957031 C 273.828125 233.5 273.464844 232.402344 273.921875 231.535156 L 274.011719 231.351562 C 274.46875 230.480469 275.566406 230.117188 276.4375 230.574219 C 277.304688 231.03125 277.671875 232.128906 277.214844 232.996094 L 277.121094 233.179688 C 276.800781 233.773438 276.160156 234.140625 275.523438 234.140625 Z M 97.601562 229.886719 C 96.914062 229.886719 96.273438 229.476562 95.953125 228.835938 L 95.863281 228.652344 C 95.453125 227.738281 95.863281 226.6875 96.777344 226.273438 C 97.691406 225.863281 98.746094 226.273438 99.15625 227.1875 L 99.246094 227.371094 C 99.660156 228.285156 99.246094 229.339844 98.332031 229.75 C 98.105469 229.839844 97.828125 229.886719 97.601562 229.886719 Z M 279.316406 225.726562 C 279.089844 225.726562 278.859375 225.679688 278.675781 225.589844 C 277.761719 225.222656 277.304688 224.171875 277.671875 223.257812 L 277.761719 223.027344 C 278.128906 222.113281 279.179688 221.65625 280.09375 222.023438 C 281.007812 222.386719 281.464844 223.441406 281.101562 224.355469 L 281.007812 224.582031 C 280.6875 225.269531 280.046875 225.726562 279.316406 225.726562 Z M 94.171875 221.289062 C 93.441406 221.289062 92.707031 220.832031 92.480469 220.054688 L 92.386719 219.828125 C 92.066406 218.867188 92.570312 217.859375 93.53125 217.539062 C 94.492188 217.222656 95.496094 217.722656 95.816406 218.683594 L 95.910156 218.914062 C 96.230469 219.875 95.726562 220.878906 94.8125 221.199219 C 94.582031 221.246094 94.398438 221.289062 94.171875 221.289062 Z M 282.335938 216.992188 C 282.152344 216.992188 282.015625 216.945312 281.832031 216.902344 C 280.871094 216.625 280.324219 215.621094 280.597656 214.660156 L 280.644531 214.429688 C 280.917969 213.472656 281.921875 212.921875 282.882812 213.195312 C 283.84375 213.472656 284.394531 214.476562 284.117188 215.4375 L 284.074219 215.667969 C 283.796875 216.445312 283.113281 216.992188 282.335938 216.992188 Z M 91.609375 212.375 C 90.789062 212.375 90.054688 211.824219 89.875 211.003906 L 89.828125 210.773438 C 89.597656 209.8125 90.195312 208.851562 91.152344 208.625 C 92.113281 208.394531 93.074219 208.988281 93.304688 209.949219 L 93.347656 210.179688 C 93.578125 211.140625 92.984375 212.097656 92.023438 212.328125 C 91.886719 212.375 91.75 212.375 91.609375 212.375 Z M 284.484375 207.984375 C 284.394531 207.984375 284.253906 207.984375 284.117188 207.9375 C 283.15625 207.753906 282.519531 206.796875 282.699219 205.835938 L 282.746094 205.605469 C 282.929688 204.644531 283.890625 204.007812 284.851562 204.1875 C 285.808594 204.371094 286.449219 205.332031 286.265625 206.292969 L 286.222656 206.519531 C 286.085938 207.390625 285.308594 207.984375 284.484375 207.984375 Z M 89.875 203.320312 C 89.003906 203.320312 88.226562 202.679688 88.089844 201.765625 L 88.042969 201.535156 C 87.90625 200.53125 88.59375 199.660156 89.597656 199.523438 C 90.605469 199.386719 91.472656 200.074219 91.609375 201.078125 L 91.65625 201.308594 C 91.792969 202.3125 91.109375 203.183594 90.148438 203.367188 C 90.054688 203.320312 89.964844 203.320312 89.875 203.320312 Z M 285.765625 198.839844 C 285.71875 198.839844 285.628906 198.839844 285.582031 198.839844 C 284.574219 198.746094 283.84375 197.878906 283.980469 196.871094 L 283.980469 196.644531 C 284.074219 195.636719 284.941406 194.90625 285.949219 195.042969 C 286.953125 195.136719 287.683594 196.003906 287.546875 197.011719 L 287.546875 197.238281 C 287.503906 198.152344 286.679688 198.839844 285.765625 198.839844 Z M 89.050781 194.128906 C 88.089844 194.128906 87.3125 193.398438 87.265625 192.390625 L 87.265625 192.164062 C 87.222656 191.15625 88 190.332031 88.957031 190.289062 C 89.964844 190.242188 90.789062 191.019531 90.832031 191.980469 L 90.832031 192.207031 C 90.878906 193.214844 90.101562 194.039062 89.140625 194.082031 C 89.097656 194.128906 89.050781 194.128906 89.050781 194.128906 Z M 286.222656 189.375 C 285.214844 189.375 284.347656 188.777344 284.347656 187.773438 L 284.347656 187.589844 C 284.347656 187.589844 284.347656 187.542969 284.347656 187.542969 L 284.347656 187.316406 C 284.347656 186.308594 285.171875 185.53125 286.175781 185.53125 C 287.183594 185.53125 288.003906 186.355469 288.003906 187.316406 L 288.003906 187.5 C 288.003906 187.5 288.003906 187.542969 288.003906 187.542969 L 288.003906 187.773438 C 288.003906 188.777344 287.226562 189.375 286.222656 189.375 Z M 89.003906 184.847656 C 88.957031 184.847656 88.957031 184.847656 88.914062 184.847656 C 87.90625 184.800781 87.128906 183.976562 87.175781 182.972656 L 87.175781 182.742188 C 87.222656 181.738281 88.089844 181.003906 89.050781 181.050781 C 90.054688 181.097656 90.832031 181.921875 90.742188 182.925781 L 90.742188 183.15625 C 90.789062 184.113281 89.964844 184.847656 89.003906 184.847656 Z M 285.808594 180.136719 C 284.894531 180.136719 284.117188 179.449219 284.027344 178.492188 L 284.027344 178.261719 C 283.933594 177.257812 284.667969 176.386719 285.628906 176.296875 C 286.632812 176.203125 287.503906 176.9375 287.59375 177.894531 L 287.59375 178.125 C 287.683594 179.132812 286.953125 180 285.949219 180.089844 C 285.902344 180.136719 285.855469 180.136719 285.808594 180.136719 Z M 89.875 175.65625 C 89.78125 175.65625 89.691406 175.65625 89.644531 175.65625 C 88.640625 175.519531 87.953125 174.605469 88.089844 173.644531 L 88.136719 173.414062 C 88.273438 172.410156 89.1875 171.722656 90.195312 171.90625 C 91.199219 172.042969 91.886719 172.957031 91.703125 173.964844 L 91.65625 174.191406 C 91.519531 175.015625 90.742188 175.65625 89.875 175.65625 Z M 284.53125 170.992188 C 283.660156 170.992188 282.929688 170.398438 282.746094 169.527344 L 282.699219 169.300781 C 282.519531 168.339844 283.15625 167.378906 284.117188 167.195312 C 285.078125 167.011719 286.039062 167.652344 286.222656 168.613281 L 286.265625 168.84375 C 286.449219 169.804688 285.808594 170.761719 284.851562 170.945312 C 284.710938 170.992188 284.621094 170.992188 284.53125 170.992188 Z M 91.566406 166.554688 C 91.429688 166.554688 91.289062 166.554688 91.152344 166.511719 C 90.195312 166.28125 89.597656 165.320312 89.828125 164.363281 L 89.875 164.132812 C 90.101562 163.171875 91.0625 162.578125 92.023438 162.808594 C 92.984375 163.035156 93.578125 163.996094 93.347656 164.957031 L 93.304688 165.183594 C 93.121094 166.007812 92.386719 166.554688 91.566406 166.554688 Z M 282.378906 161.984375 C 281.601562 161.984375 280.871094 161.480469 280.644531 160.65625 L 280.597656 160.429688 C 280.324219 159.46875 280.871094 158.460938 281.832031 158.1875 C 282.792969 157.914062 283.796875 158.460938 284.074219 159.421875 L 284.117188 159.652344 C 284.394531 160.613281 283.84375 161.617188 282.882812 161.890625 C 282.699219 161.984375 282.519531 161.984375 282.378906 161.984375 Z M 94.125 157.683594 C 93.941406 157.683594 93.761719 157.640625 93.53125 157.59375 C 92.570312 157.273438 92.066406 156.269531 92.386719 155.308594 L 92.480469 155.125 C 92.800781 154.164062 93.851562 153.660156 94.765625 153.980469 C 95.726562 154.300781 96.230469 155.308594 95.910156 156.269531 L 95.816406 156.496094 C 95.589844 157.226562 94.859375 157.683594 94.125 157.683594 Z M 279.410156 153.25 C 278.675781 153.25 277.992188 152.792969 277.714844 152.105469 L 277.625 151.925781 C 277.257812 151.007812 277.714844 149.957031 278.632812 149.59375 C 279.546875 149.226562 280.597656 149.683594 280.964844 150.597656 L 281.054688 150.828125 C 281.421875 151.742188 280.964844 152.792969 280.046875 153.160156 C 279.820312 153.203125 279.636719 153.25 279.410156 153.25 Z M 97.507812 149.089844 C 97.28125 149.089844 97.007812 149.042969 96.777344 148.953125 C 95.863281 148.539062 95.453125 147.488281 95.863281 146.574219 L 95.953125 146.34375 C 96.367188 145.429688 97.417969 145.019531 98.332031 145.429688 C 99.246094 145.84375 99.660156 146.894531 99.246094 147.808594 L 99.15625 147.992188 C 98.835938 148.675781 98.195312 149.089844 97.507812 149.089844 Z M 275.613281 144.789062 C 274.972656 144.789062 274.332031 144.425781 274.011719 143.785156 L 273.921875 143.601562 C 273.464844 142.734375 273.828125 141.636719 274.699219 141.179688 C 275.566406 140.722656 276.664062 141.085938 277.121094 141.957031 L 277.214844 142.136719 C 277.671875 143.007812 277.304688 144.105469 276.4375 144.5625 C 276.160156 144.746094 275.886719 144.789062 275.613281 144.789062 Z M 101.671875 140.8125 C 101.351562 140.8125 101.078125 140.722656 100.800781 140.582031 C 99.933594 140.082031 99.613281 138.984375 100.117188 138.113281 L 100.207031 137.929688 C 100.710938 137.0625 101.808594 136.789062 102.675781 137.246094 C 103.546875 137.75 103.820312 138.847656 103.363281 139.714844 L 103.269531 139.898438 C 102.90625 140.492188 102.3125 140.8125 101.671875 140.8125 Z M 271.039062 136.742188 C 270.445312 136.742188 269.851562 136.421875 269.53125 135.917969 L 269.441406 135.738281 C 268.890625 134.914062 269.164062 133.769531 269.988281 133.265625 C 270.8125 132.71875 271.957031 132.992188 272.457031 133.816406 L 272.59375 134 C 273.144531 134.820312 272.871094 135.964844 272.046875 136.46875 C 271.679688 136.695312 271.359375 136.742188 271.039062 136.742188 Z M 106.609375 132.992188 C 106.242188 132.992188 105.878906 132.902344 105.601562 132.671875 C 104.78125 132.125 104.597656 130.980469 105.144531 130.15625 L 105.28125 129.976562 C 105.832031 129.152344 106.976562 128.96875 107.796875 129.519531 C 108.621094 130.113281 108.804688 131.210938 108.253906 132.03125 L 108.117188 132.214844 C 107.753906 132.71875 107.15625 132.992188 106.609375 132.992188 Z M 265.738281 129.199219 C 265.1875 129.199219 264.640625 128.96875 264.320312 128.511719 L 264.183594 128.328125 C 263.585938 127.550781 263.722656 126.410156 264.5 125.8125 C 265.277344 125.21875 266.421875 125.355469 267.015625 126.132812 L 267.152344 126.316406 C 267.75 127.09375 267.609375 128.238281 266.832031 128.832031 C 266.515625 129.0625 266.148438 129.199219 265.738281 129.199219 Z M 112.234375 125.675781 C 111.820312 125.675781 111.410156 125.539062 111.089844 125.265625 C 110.3125 124.625 110.222656 123.480469 110.863281 122.75 L 111 122.566406 C 111.640625 121.789062 112.78125 121.746094 113.558594 122.382812 C 114.335938 123.023438 114.382812 124.167969 113.742188 124.945312 L 113.605469 125.128906 C 113.285156 125.449219 112.738281 125.675781 112.234375 125.675781 Z M 259.746094 122.15625 C 259.242188 122.15625 258.785156 121.972656 258.421875 121.5625 L 258.28125 121.425781 C 257.597656 120.691406 257.644531 119.550781 258.375 118.863281 C 259.105469 118.179688 260.25 118.222656 260.933594 118.957031 L 261.117188 119.136719 C 261.804688 119.871094 261.757812 121.011719 261.027344 121.699219 C 260.660156 121.972656 260.203125 122.15625 259.746094 122.15625 Z M 118.542969 118.910156 C 118.085938 118.910156 117.628906 118.726562 117.261719 118.359375 C 116.578125 117.628906 116.578125 116.53125 117.308594 115.800781 L 117.492188 115.617188 C 118.222656 114.929688 119.367188 114.929688 120.050781 115.664062 C 120.738281 116.394531 120.738281 117.539062 120.007812 118.222656 L 119.871094 118.359375 C 119.457031 118.726562 119 118.910156 118.542969 118.910156 Z M 253.160156 115.664062 C 252.75 115.664062 252.292969 115.527344 251.972656 115.207031 L 251.835938 115.070312 C 251.105469 114.429688 251.011719 113.285156 251.699219 112.507812 C 252.339844 111.777344 253.480469 111.683594 254.257812 112.371094 L 254.441406 112.507812 C 255.171875 113.195312 255.265625 114.292969 254.578125 115.070312 C 254.121094 115.480469 253.664062 115.664062 253.160156 115.664062 Z M 125.449219 112.738281 C 124.945312 112.738281 124.398438 112.507812 124.03125 112.050781 C 123.390625 111.273438 123.527344 110.128906 124.304688 109.535156 L 124.488281 109.398438 C 125.265625 108.757812 126.410156 108.894531 127.003906 109.671875 C 127.644531 110.449219 127.507812 111.59375 126.730469 112.1875 L 126.546875 112.324219 C 126.226562 112.597656 125.859375 112.738281 125.449219 112.738281 Z M 245.984375 109.855469 C 245.617188 109.855469 245.25 109.765625 244.929688 109.488281 L 244.75 109.351562 C 243.925781 108.757812 243.789062 107.660156 244.335938 106.835938 C 244.929688 106.015625 246.074219 105.878906 246.851562 106.425781 L 247.035156 106.5625 C 247.859375 107.15625 247.996094 108.300781 247.398438 109.078125 C 247.082031 109.582031 246.53125 109.855469 245.984375 109.855469 Z M 132.902344 107.25 C 132.308594 107.25 131.757812 106.976562 131.394531 106.425781 C 130.84375 105.601562 131.074219 104.460938 131.894531 103.910156 L 132.078125 103.773438 C 132.902344 103.226562 134.042969 103.453125 134.59375 104.277344 C 135.140625 105.101562 134.914062 106.242188 134.089844 106.792969 L 133.90625 106.929688 C 133.585938 107.15625 133.222656 107.25 132.902344 107.25 Z M 238.253906 104.734375 C 237.933594 104.734375 237.613281 104.644531 237.339844 104.460938 L 237.15625 104.324219 C 236.289062 103.820312 236.015625 102.722656 236.515625 101.855469 C 237.019531 100.984375 238.117188 100.710938 238.988281 101.214844 L 239.167969 101.351562 C 240.039062 101.855469 240.3125 102.949219 239.808594 103.820312 C 239.488281 104.414062 238.894531 104.734375 238.253906 104.734375 Z M 140.8125 102.492188 C 140.171875 102.492188 139.53125 102.128906 139.210938 101.535156 C 138.753906 100.664062 139.074219 99.566406 139.945312 99.109375 L 140.125 99.019531 C 140.996094 98.5625 142.09375 98.882812 142.550781 99.75 C 143.007812 100.617188 142.6875 101.714844 141.816406 102.171875 L 141.636719 102.265625 C 141.40625 102.402344 141.085938 102.492188 140.8125 102.492188 Z M 230.117188 100.34375 C 229.839844 100.34375 229.613281 100.300781 229.339844 100.160156 L 229.15625 100.070312 C 228.242188 99.660156 227.875 98.5625 228.285156 97.648438 C 228.699219 96.730469 229.796875 96.367188 230.710938 96.777344 L 230.894531 96.871094 C 231.808594 97.28125 232.171875 98.378906 231.761719 99.292969 C 231.441406 99.980469 230.800781 100.34375 230.117188 100.34375 Z M 149.132812 98.46875 C 148.449219 98.46875 147.761719 98.058594 147.488281 97.371094 C 147.121094 96.457031 147.535156 95.40625 148.449219 94.996094 L 148.675781 94.902344 C 149.59375 94.539062 150.644531 94.949219 151.054688 95.863281 C 151.421875 96.777344 151.007812 97.828125 150.09375 98.242188 L 149.910156 98.332031 C 149.59375 98.425781 149.363281 98.46875 149.132812 98.46875 Z M 221.609375 96.730469 C 221.429688 96.730469 221.199219 96.6875 221.015625 96.640625 L 220.789062 96.550781 C 219.875 96.230469 219.371094 95.175781 219.734375 94.21875 C 220.054688 93.304688 221.109375 92.800781 222.066406 93.164062 L 222.296875 93.257812 C 223.210938 93.578125 223.714844 94.628906 223.394531 95.589844 C 223.027344 96.273438 222.34375 96.730469 221.609375 96.730469 Z M 157.824219 95.269531 C 157.046875 95.269531 156.359375 94.765625 156.085938 93.988281 C 155.765625 93.027344 156.3125 92.023438 157.273438 91.75 L 157.503906 91.703125 C 158.460938 91.382812 159.46875 91.929688 159.742188 92.890625 C 160.0625 93.851562 159.515625 94.859375 158.554688 95.132812 L 158.324219 95.175781 C 158.1875 95.269531 158.003906 95.269531 157.824219 95.269531 Z M 212.785156 93.988281 C 212.648438 93.988281 212.464844 93.988281 212.328125 93.941406 L 212.097656 93.898438 C 211.140625 93.667969 210.542969 92.664062 210.820312 91.703125 C 211.046875 90.742188 212.054688 90.148438 213.015625 90.421875 L 213.242188 90.46875 C 214.203125 90.742188 214.796875 91.703125 214.523438 92.664062 C 214.292969 93.441406 213.5625 93.988281 212.785156 93.988281 Z M 166.738281 92.9375 C 165.917969 92.9375 165.183594 92.34375 165 91.519531 C 164.773438 90.558594 165.414062 89.597656 166.375 89.371094 L 166.554688 89.324219 C 167.515625 89.097656 168.523438 89.734375 168.707031 90.695312 C 168.933594 91.65625 168.292969 92.617188 167.332031 92.84375 L 167.105469 92.890625 C 167.011719 92.890625 166.875 92.9375 166.738281 92.9375 Z M 203.730469 92.023438 C 203.640625 92.023438 203.546875 92.023438 203.457031 91.976562 L 203.230469 91.929688 C 202.269531 91.792969 201.582031 90.832031 201.71875 89.875 C 201.902344 88.914062 202.816406 88.226562 203.777344 88.363281 L 204.007812 88.410156 C 204.964844 88.59375 205.652344 89.507812 205.46875 90.46875 C 205.378906 91.429688 204.601562 92.023438 203.730469 92.023438 Z M 175.882812 91.429688 C 174.96875 91.429688 174.191406 90.742188 174.101562 89.828125 C 173.964844 88.820312 174.695312 87.953125 175.703125 87.816406 L 175.929688 87.769531 C 176.9375 87.632812 177.804688 88.363281 177.941406 89.371094 C 178.078125 90.375 177.347656 91.246094 176.339844 91.382812 L 176.113281 91.429688 C 176.023438 91.382812 175.929688 91.429688 175.882812 91.429688 Z M 194.539062 90.972656 C 194.496094 90.972656 194.449219 90.972656 194.402344 90.972656 L 194.175781 90.972656 C 193.167969 90.925781 192.4375 90.054688 192.484375 89.050781 C 192.527344 88.042969 193.398438 87.3125 194.402344 87.359375 L 194.632812 87.359375 C 195.636719 87.402344 196.371094 88.273438 196.324219 89.277344 C 196.277344 90.238281 195.5 90.972656 194.539062 90.972656 Z M 185.074219 90.789062 C 184.113281 90.789062 183.292969 90.011719 183.292969 89.003906 C 183.246094 88 184.070312 87.175781 185.03125 87.128906 L 185.257812 87.128906 C 186.21875 87.085938 187.085938 87.90625 187.085938 88.867188 C 187.132812 89.875 186.308594 90.695312 185.351562 90.742188 L 185.074219 90.789062 C 185.121094 90.789062 185.121094 90.789062 185.074219 90.789062 Z M 185.074219 90.789062"/><g><g><g><path d="M 24.796875 -22.265625 C 22.566406 -23.410156 21.363281 -26.160156 21.1875 -30.515625 C 21.1875 -32.378906 20.253906 -33.222656 18.390625 -33.046875 L 1.203125 -32.25 C 0.492188 -32.164062 -0.101562 -31.851562 -0.59375 -31.3125 C -1.082031 -30.78125 -1.328125 -30.117188 -1.328125 -29.328125 C -0.796875 -22.921875 0.222656 -17.8125 1.734375 -14 C 3.691406 -8.84375 7.378906 -4.976562 12.796875 -2.40625 C 14.753906 -1.425781 16.882812 -0.78125 19.1875 -0.46875 C 21.5 -0.15625 24.125 0 27.0625 0 C 33.101562 0 38.695312 -1.796875 43.84375 -5.390625 C 49 -8.992188 52.644531 -13.769531 54.78125 -19.71875 C 56.46875 -24.34375 57.644531 -28.804688 58.3125 -33.109375 C 58.976562 -37.421875 59.53125 -42.691406 59.96875 -48.921875 L 60.25 -52.78125 L 60.375 -55.84375 C 60.550781 -58.863281 60.640625 -61.128906 60.640625 -62.640625 L 60.640625 -89.828125 C 60.640625 -91.609375 59.753906 -92.5 57.984375 -92.5 L 40.390625 -93.03125 C 39.585938 -93.03125 38.914062 -92.765625 38.375 -92.234375 C 37.84375 -91.703125 37.578125 -91.078125 37.578125 -90.359375 L 37.1875 -54.375 L 37.1875 -54.25 C 37.1875 -51.132812 37.140625 -48.78125 37.046875 -47.1875 C 36.960938 -43.625 36.65625 -39.847656 36.125 -35.859375 C 35.769531 -33.015625 34.789062 -29.945312 33.1875 -26.65625 C 32.476562 -25.238281 31.546875 -24.0625 30.390625 -23.125 C 29.234375 -22.1875 28.078125 -21.71875 26.921875 -21.71875 C 26.117188 -21.71875 25.5 -21.898438 25.0625 -22.265625 Z M 52.109375 -84.234375 C 52.109375 -84.234375 52.128906 -84.207031 52.171875 -84.15625 C 52.222656 -84.113281 52.25 -84.050781 52.25 -83.96875 L 52.109375 -83.703125 L 51.984375 -83.703125 L 51.578125 -83.96875 C 51.847656 -83.96875 51.984375 -84.054688 51.984375 -84.234375 Z M 49.578125 -79.5625 C 49.398438 -79.5625 49.3125 -79.648438 49.3125 -79.828125 L 49.3125 -80.234375 C 49.40625 -80.234375 49.71875 -80.054688 50.25 -79.703125 Z M 49.046875 -76.234375 L 49.3125 -76.234375 L 49.3125 -75.84375 L 49.046875 -75.84375 Z M 45.3125 -75.578125 C 45.40625 -75.660156 45.582031 -75.703125 45.84375 -75.703125 L 45.84375 -75.296875 L 45.046875 -75.296875 Z M 50.109375 -73.84375 C 50.109375 -73.664062 49.976562 -73.578125 49.71875 -73.578125 C 49.269531 -73.578125 49.09375 -73.753906 49.1875 -74.109375 L 49.1875 -74.375 L 49.71875 -74.375 L 50.109375 -74.109375 Z M 48.515625 -73.84375 C 48.515625 -73.476562 48.335938 -73.253906 47.984375 -73.171875 C 47.984375 -73.253906 47.957031 -73.453125 47.90625 -73.765625 C 47.863281 -74.078125 47.890625 -74.234375 47.984375 -74.234375 C 48.335938 -74.234375 48.515625 -74.101562 48.515625 -73.84375 Z M 47.1875 -70.640625 C 47.71875 -70.546875 47.984375 -70.410156 47.984375 -70.234375 C 47.984375 -70.148438 47.804688 -69.992188 47.453125 -69.765625 C 47.097656 -69.546875 46.828125 -69.394531 46.640625 -69.3125 L 45.84375 -69.96875 L 46.109375 -70.90625 L 46.640625 -70.765625 C 47.003906 -70.765625 47.1875 -70.722656 47.1875 -70.640625 Z M 49.84375 -68.234375 L 49.84375 -68.765625 L 50.640625 -68.765625 L 50.640625 -68.234375 Z M 49.3125 -67.046875 C 49.488281 -67.046875 49.578125 -66.957031 49.578125 -66.78125 L 48.25 -66.78125 L 48.25 -67.4375 L 49.1875 -67.4375 C 49.1875 -67.4375 49.207031 -67.414062 49.25 -67.375 C 49.289062 -67.332031 49.3125 -67.3125 49.3125 -67.3125 Z M 49.984375 -64.640625 C 50.335938 -64.640625 50.691406 -64.460938 51.046875 -64.109375 L 50.515625 -63.703125 C 50.160156 -63.703125 49.9375 -63.75 49.84375 -63.84375 L 49.578125 -63.84375 C 49.578125 -64.289062 49.710938 -64.554688 49.984375 -64.640625 Z M 52.640625 -63.171875 C 53.265625 -63.171875 53.625 -62.953125 53.71875 -62.515625 L 52.515625 -62.375 L 52.515625 -62.78125 Z M 50.515625 -61.3125 C 50.515625 -61.21875 50.46875 -61.171875 50.375 -61.171875 C 50.289062 -61.085938 50.113281 -61.046875 49.84375 -61.046875 L 49.046875 -61.046875 C 48.867188 -61.128906 48.78125 -61.484375 48.78125 -62.109375 L 50.515625 -61.84375 Z M 50.515625 -60.78125 C 50.597656 -60.78125 50.640625 -60.691406 50.640625 -60.515625 C 50.460938 -60.335938 50.109375 -60.25 49.578125 -60.25 L 49.578125 -59.578125 L 48.515625 -59.578125 L 48.515625 -59.703125 L 48.375 -59.703125 L 48.25 -59.84375 L 47.984375 -59.96875 L 47.984375 -60.515625 C 48.066406 -60.597656 48.195312 -60.640625 48.375 -60.640625 C 48.550781 -60.640625 48.734375 -60.6875 48.921875 -60.78125 C 49.179688 -60.78125 49.441406 -60.820312 49.703125 -60.90625 C 49.972656 -61 50.242188 -61.085938 50.515625 -61.171875 Z M 48.375 -59.4375 C 49.175781 -59.4375 49.578125 -59.21875 49.578125 -58.78125 L 48.375 -58.515625 L 48.25 -58.78125 L 47.984375 -59.171875 L 47.71875 -58.640625 C 47.625 -58.734375 47.445312 -58.78125 47.1875 -58.78125 C 47.1875 -58.863281 47.140625 -58.90625 47.046875 -58.90625 L 46.921875 -58.90625 L 46.921875 -59.171875 L 47.1875 -59.703125 C 47.363281 -59.703125 47.628906 -59.613281 47.984375 -59.4375 L 47.984375 -59.3125 C 48.242188 -59.3125 48.375 -59.351562 48.375 -59.4375 Z M 47.71875 -57.984375 C 48.425781 -57.984375 48.914062 -57.800781 49.1875 -57.4375 L 48.25 -57.4375 L 48.25 -57.578125 L 47.984375 -57.703125 C 47.984375 -57.703125 47.957031 -57.75 47.90625 -57.84375 C 47.863281 -57.9375 47.800781 -57.984375 47.71875 -57.984375 Z M 51.046875 -57.046875 C 51.222656 -57.046875 51.398438 -56.867188 51.578125 -56.515625 C 51.578125 -56.515625 51.554688 -56.488281 51.515625 -56.4375 C 51.472656 -56.394531 51.453125 -56.375 51.453125 -56.375 L 51.3125 -56.25 C 51.3125 -56.25 51.289062 -56.222656 51.25 -56.171875 C 51.207031 -56.128906 51.1875 -56.109375 51.1875 -56.109375 C 51.1875 -56.109375 51.160156 -56.128906 51.109375 -56.171875 C 51.066406 -56.222656 51.046875 -56.25 51.046875 -56.25 L 50.78125 -56.25 L 50.78125 -56.515625 C 50.6875 -56.691406 50.507812 -56.78125 50.25 -56.78125 L 50.109375 -56.640625 L 49.984375 -56.640625 C 49.984375 -56.554688 49.9375 -56.515625 49.84375 -56.515625 L 49.3125 -57.046875 L 49.84375 -57.4375 L 50.640625 -57.4375 Z M 55.578125 -57.046875 C 56.023438 -56.421875 56.070312 -56.066406 55.71875 -55.984375 L 54.78125 -55.984375 L 54.90625 -55.84375 L 54.90625 -55.4375 L 54.78125 -55.171875 L 54.640625 -54.90625 L 54.78125 -54.90625 C 55.039062 -54.644531 55.171875 -54.46875 55.171875 -54.375 C 54.554688 -54.375 53.625 -54.550781 52.375 -54.90625 C 52.820312 -55.082031 53.132812 -55.257812 53.3125 -55.4375 L 53.84375 -56.109375 L 53.578125 -56.109375 L 53.578125 -57.046875 L 54.640625 -57.171875 C 54.910156 -57.085938 55.222656 -57.046875 55.578125 -57.046875 Z M 47.71875 -56.109375 L 47.71875 -56.515625 L 48.375 -56.78125 L 48.78125 -56.375 Z M 49.046875 -55.171875 C 49.398438 -55.171875 49.578125 -54.992188 49.578125 -54.640625 C 49.492188 -54.378906 49.226562 -54.25 48.78125 -54.25 L 48.25 -54.78125 Z M 47.453125 -52.640625 L 46.921875 -52.515625 L 46.109375 -53.046875 L 45.578125 -53.3125 C 45.578125 -53.40625 45.488281 -53.492188 45.3125 -53.578125 L 45.046875 -53.71875 L 45.3125 -53.984375 L 45.3125 -54.25 L 45.453125 -54.25 C 45.453125 -54.25 45.472656 -54.269531 45.515625 -54.3125 C 45.554688 -54.351562 45.578125 -54.375 45.578125 -54.375 L 46.375 -54.375 C 46.375 -54.113281 46.554688 -53.984375 46.921875 -53.984375 L 47.71875 -53.71875 L 47.71875 -52.640625 Z M 48.25 -53.171875 L 48.25 -53.84375 L 50.640625 -53.578125 Z M 50.109375 -51.3125 C 50.378906 -51.3125 50.554688 -51.269531 50.640625 -51.1875 L 51.1875 -51.046875 C 51.1875 -50.867188 51.140625 -50.734375 51.046875 -50.640625 L 50.78125 -50.25 L 49.578125 -50.25 L 49.578125 -50.640625 C 49.578125 -51.003906 49.753906 -51.226562 50.109375 -51.3125 Z M 54.640625 -47.984375 L 54.375 -47.84375 L 54.375 -47.71875 C 54.289062 -47.71875 54.160156 -47.628906 53.984375 -47.453125 C 53.710938 -48.242188 53.578125 -49.085938 53.578125 -49.984375 L 53.046875 -49.71875 C 52.773438 -49.625 52.507812 -49.625 52.25 -49.71875 C 52.25 -50.15625 52.378906 -50.550781 52.640625 -50.90625 C 52.910156 -50.90625 53.222656 -50.816406 53.578125 -50.640625 L 53.578125 -49.984375 L 54.90625 -50.78125 L 55.046875 -50.640625 L 55.3125 -50.640625 L 55.71875 -50.515625 L 55.71875 -49.453125 C 55.71875 -49.359375 55.625 -49.222656 55.4375 -49.046875 L 55.3125 -49.046875 L 55.3125 -48.375 Z M 49.3125 -47.1875 L 49.3125 -47.84375 L 49.84375 -47.84375 L 49.84375 -47.1875 Z M 50.640625 -45.84375 L 50.640625 -45.71875 L 49.578125 -45.71875 L 49.578125 -46.515625 L 50.90625 -46.375 L 50.90625 -46.109375 Z M 51.3125 -45.578125 L 51.3125 -46.109375 L 52.109375 -46.109375 L 52.109375 -45.578125 Z M 55.71875 -45.984375 C 55.71875 -45.535156 55.359375 -45.3125 54.640625 -45.3125 L 54.109375 -45.3125 L 54.109375 -45.453125 L 53.984375 -45.578125 L 54.640625 -46.109375 Z M 53.453125 -44.921875 C 53.453125 -44.828125 53.492188 -44.78125 53.578125 -44.78125 L 53.578125 -44.515625 L 52.375 -44.25 L 52.375 -45.1875 L 53.3125 -45.1875 L 53.3125 -45.046875 Z M 47.453125 -44.515625 L 47.71875 -45.046875 L 48.78125 -44.921875 L 48.78125 -44.25 Z M 49.578125 -43.453125 L 50.90625 -44.25 L 51.1875 -43.3125 L 50.375 -43.3125 Z M 55.3125 -43.453125 C 55.84375 -43.453125 56.242188 -43.273438 56.515625 -42.921875 L 56.109375 -42.78125 L 55.984375 -42.78125 C 55.984375 -42.695312 55.800781 -42.65625 55.4375 -42.65625 L 55.3125 -42.921875 L 55.3125 -43.1875 C 55.132812 -43.363281 55.132812 -43.453125 55.3125 -43.453125 Z M 50.640625 -42.109375 L 50.640625 -42.515625 L 51.3125 -42.515625 L 51.3125 -42.109375 Z M 53.71875 -42.109375 C 53.976562 -41.847656 53.976562 -41.582031 53.71875 -41.3125 L 53.3125 -41.578125 C 53.132812 -41.578125 53.046875 -41.664062 53.046875 -41.84375 C 53.316406 -41.84375 53.539062 -41.929688 53.71875 -42.109375 Z M 54.25 -39.84375 C 54.070312 -39.664062 53.894531 -39.578125 53.71875 -39.578125 C 53.175781 -39.578125 52.816406 -39.710938 52.640625 -39.984375 L 52.375 -40.515625 L 52.515625 -41.046875 L 52.78125 -41.1875 L 53.171875 -41.046875 L 53.71875 -41.1875 L 54.109375 -41.046875 C 54.109375 -40.960938 54.195312 -40.921875 54.375 -40.921875 L 54.375 -39.984375 Z M 52.375 -39.1875 L 51.84375 -39.1875 L 52.25 -39.84375 L 52.78125 -39.578125 Z M 55.71875 -38.921875 C 56.070312 -38.648438 56.25 -38.25 56.25 -37.71875 C 55.894531 -37.445312 55.445312 -37.445312 54.90625 -37.71875 C 54.90625 -37.894531 54.863281 -38.03125 54.78125 -38.125 L 54.78125 -38.921875 Z M 52.25 -37.1875 C 52.425781 -37.09375 52.78125 -37.046875 53.3125 -37.046875 L 54.375 -37.046875 C 54.375 -36.515625 54.15625 -36.25 53.71875 -36.25 L 52.90625 -36.25 C 52.820312 -36.34375 52.515625 -36.390625 51.984375 -36.390625 Z M 55.4375 -35.453125 C 55.175781 -34.828125 54.644531 -34.382812 53.84375 -34.125 L 52.640625 -34.25 C 52.816406 -34.425781 53.082031 -34.671875 53.4375 -34.984375 C 53.800781 -35.296875 54.070312 -35.453125 54.25 -35.453125 Z M 55.4375 -33.046875 C 55.4375 -32.867188 55.484375 -32.738281 55.578125 -32.65625 C 55.578125 -32.5625 55.625 -32.515625 55.71875 -32.515625 L 55.71875 -32.25 L 55.171875 -32.25 C 55.171875 -32.164062 54.90625 -32.125 54.375 -32.125 L 54.640625 -33.046875 Z M 45.578125 -28.515625 L 45.046875 -28.65625 L 45.3125 -29.0625 L 46.109375 -28.921875 L 46.109375 -28.25 Z M 46.640625 -23.1875 L 46.109375 -23.1875 C 45.847656 -23.457031 45.71875 -23.769531 45.71875 -24.125 C 45.71875 -24.476562 45.757812 -24.789062 45.84375 -25.0625 L 45.046875 -25.59375 C 45.046875 -25.851562 45.132812 -26.117188 45.3125 -26.390625 L 46.109375 -26.390625 C 46.734375 -26.035156 47.046875 -25.546875 47.046875 -24.921875 C 47.046875 -24.117188 47.09375 -23.628906 47.1875 -23.453125 Z M 41.578125 -23.59375 L 41.84375 -23.59375 L 41.84375 -23.0625 L 41.578125 -23.0625 Z M 38.390625 -21.59375 C 38.390625 -21.5 38.300781 -21.453125 38.125 -21.453125 L 37.453125 -21.59375 C 37.003906 -21.59375 36.601562 -21.679688 36.25 -21.859375 L 35.71875 -21.859375 C 35.445312 -21.859375 35.269531 -21.898438 35.1875 -21.984375 C 35.09375 -21.984375 35 -22.003906 34.90625 -22.046875 C 34.820312 -22.097656 34.738281 -22.125 34.65625 -22.125 C 34.65625 -22.300781 35.097656 -22.390625 35.984375 -22.390625 C 36.785156 -22.304688 37.316406 -22.304688 37.578125 -22.390625 L 38.25 -22.390625 L 38.515625 -22.125 L 38.515625 -21.59375 Z M 42.25 -19.453125 C 42.15625 -19.628906 42.15625 -19.765625 42.25 -19.859375 L 43.046875 -19.59375 L 42.390625 -19.1875 Z M 39.984375 -17.59375 C 39.984375 -17.320312 39.867188 -16.960938 39.640625 -16.515625 C 39.421875 -16.078125 39.132812 -15.859375 38.78125 -15.859375 C 38.070312 -15.859375 37.71875 -16.171875 37.71875 -16.796875 C 37.988281 -17.679688 38.390625 -18.125 38.921875 -18.125 C 39.179688 -18.125 39.421875 -18.078125 39.640625 -17.984375 C 39.867188 -17.898438 39.984375 -17.769531 39.984375 -17.59375 Z M 39.984375 -17.59375" transform="translate(111.377 236.819)"/></g></g></g><g><g><g><path d="M 67.84375 -92.5 C 68.375 -91.789062 68.59375 -91.078125 68.5 -90.359375 C 67.082031 -70.191406 66.238281 -54.910156 65.96875 -44.515625 C 65.707031 -35.453125 65.578125 -21.945312 65.578125 -4 C 65.578125 -2.21875 64.6875 -1.328125 62.90625 -1.328125 L 43.1875 -1.328125 C 42.46875 -1.328125 41.84375 -1.570312 41.3125 -2.0625 C 40.78125 -2.550781 40.515625 -3.195312 40.515625 -4 L 40.515625 -5.59375 C 40.867188 -5.769531 41.046875 -5.90625 41.046875 -6 L 41.046875 -6.390625 L 40.65625 -6.390625 L 40.78125 -10.125 L 41.3125 -10.390625 C 41.3125 -10.484375 41.242188 -10.570312 41.109375 -10.65625 C 40.984375 -10.75 40.875 -10.835938 40.78125 -10.921875 L 42.25 -38.921875 L 39.71875 -38.65625 L 37.3125 -38.25 C 36.78125 -38.25 36.160156 -38.160156 35.453125 -37.984375 C 35.003906 -37.984375 34.335938 -37.894531 33.453125 -37.71875 C 31.054688 -37.09375 27.988281 -36.113281 24.25 -34.78125 L 23.71875 -3.0625 C 23.71875 -1.289062 22.832031 -0.40625 21.0625 -0.40625 L 1.46875 0 C 0.582031 0 -0.101562 -0.265625 -0.59375 -0.796875 C -1.082031 -1.328125 -1.328125 -2.039062 -1.328125 -2.9375 L 4.53125 -89.96875 C 4.707031 -91.65625 5.597656 -92.5 7.203125 -92.5 L 24.25 -92.890625 C 25.144531 -92.890625 25.859375 -92.601562 26.390625 -92.03125 C 26.921875 -91.457031 27.144531 -90.8125 27.0625 -90.09375 L 24.921875 -58.25 L 30.125 -58.375 L 30.390625 -57.984375 C 30.390625 -57.796875 30.609375 -57.703125 31.046875 -57.703125 C 31.316406 -57.703125 31.5 -57.882812 31.59375 -58.25 L 30.921875 -58.375 L 43.3125 -58.90625 L 45.1875 -90.765625 C 45.269531 -92.453125 46.15625 -93.296875 47.84375 -93.296875 L 65.84375 -93.296875 C 66.550781 -93.296875 67.21875 -93.03125 67.84375 -92.5 Z M 23.984375 -87.296875 C 23.804688 -87.472656 23.453125 -87.695312 22.921875 -87.96875 L 20.390625 -88.234375 L 20.125 -88.234375 L 18.921875 -88.09375 L 18.125 -88.09375 C 17.851562 -88.007812 17.410156 -87.96875 16.796875 -87.96875 L 16 -87.96875 C 15.726562 -87.96875 15.59375 -88.007812 15.59375 -88.09375 L 15.59375 -88.5 L 14.53125 -88.5 C 14.082031 -88.050781 13.769531 -87.828125 13.59375 -87.828125 C 13.507812 -87.921875 13.15625 -87.878906 12.53125 -87.703125 C 13.414062 -87.347656 14.171875 -87.171875 14.796875 -87.171875 L 15.734375 -87.4375 L 16.65625 -87.5625 C 16.75 -87.5625 16.882812 -87.539062 17.0625 -87.5 C 17.238281 -87.457031 17.59375 -87.4375 18.125 -87.4375 L 22.65625 -87.296875 L 23.0625 -87.03125 C 23.144531 -86.945312 23.320312 -86.90625 23.59375 -86.90625 Z M 10.921875 -86.09375 C 10.921875 -86.1875 10.875 -86.273438 10.78125 -86.359375 C 10.695312 -86.453125 10.613281 -86.5 10.53125 -86.5 C 10.351562 -86.675781 10.265625 -86.8125 10.265625 -86.90625 L 10.390625 -87.171875 L 10.390625 -87.5625 L 9.59375 -87.4375 L 9.203125 -87.296875 L 9.203125 -85.96875 C 9.378906 -85.695312 9.644531 -85.5625 10 -85.5625 Z M 11.59375 -83.03125 L 11.59375 -83.703125 L 11.203125 -83.703125 L 11.203125 -83.03125 Z M 47.84375 -82.640625 C 47.84375 -82.460938 48.019531 -82.191406 48.375 -81.828125 L 49.046875 -82.375 C 48.867188 -82.550781 48.78125 -82.640625 48.78125 -82.640625 Z M 55.984375 -81.4375 L 55.984375 -81.96875 L 55.578125 -81.96875 L 55.578125 -81.4375 Z M 53.453125 -79.703125 L 53.453125 -79.96875 L 53.046875 -79.96875 L 53.046875 -79.703125 Z M 52.640625 -77.171875 L 52.640625 -77.703125 L 52.375 -77.703125 L 52.375 -77.171875 Z M 14 -75.84375 L 13.859375 -75.84375 L 13.59375 -75.578125 L 13.859375 -75.4375 Z M 21.453125 -73.171875 C 21.453125 -73.441406 21.320312 -73.617188 21.0625 -73.703125 C 20.882812 -73.878906 20.882812 -74.054688 21.0625 -74.234375 C 21.0625 -74.503906 21.015625 -74.679688 20.921875 -74.765625 L 20.390625 -74.765625 L 19.71875 -74.375 L 19.71875 -73.578125 L 21.0625 -73.03125 L 21.328125 -73.03125 Z M 48.375 -74.765625 L 48.375 -74.5 L 49.3125 -74.5 L 49.3125 -74.765625 Z M 49.046875 -72.765625 L 50.109375 -72.765625 L 50.109375 -73.03125 L 49.046875 -73.03125 Z M 55.578125 -65.84375 C 55.578125 -65.664062 55.753906 -65.488281 56.109375 -65.3125 C 56.640625 -64.957031 56.90625 -64.78125 56.90625 -64.78125 L 56.25 -65.4375 Z M 33.984375 -56.78125 C 33.628906 -57.132812 33.273438 -57.3125 32.921875 -57.3125 C 32.828125 -57.21875 32.738281 -57.171875 32.65625 -57.171875 L 32.65625 -56.90625 C 32.65625 -56.820312 32.785156 -56.691406 33.046875 -56.515625 C 33.585938 -56.242188 33.8125 -56.15625 33.71875 -56.25 L 33.859375 -56.515625 Z M 37.3125 -56.25 L 37.578125 -56.25 L 37.3125 -56.515625 L 37.046875 -56.375 Z M 30.515625 -54.640625 C 31.054688 -54.460938 31.457031 -54.640625 31.71875 -55.171875 L 30.921875 -55.171875 C 30.648438 -55.085938 30.515625 -54.910156 30.515625 -54.640625 Z M 34.65625 -54.515625 C 34.832031 -54.421875 35.007812 -54.304688 35.1875 -54.171875 C 35.363281 -54.046875 35.539062 -53.984375 35.71875 -53.984375 L 36.125 -54.375 L 35.984375 -54.640625 L 35.859375 -54.78125 L 34.78125 -54.78125 L 34.78125 -54.640625 Z M 33.1875 -52.515625 C 33.71875 -53.046875 33.984375 -53.359375 33.984375 -53.453125 L 33.859375 -53.84375 C 33.765625 -53.84375 33.71875 -53.890625 33.71875 -53.984375 L 32.78125 -53.71875 C 32.601562 -53.71875 32.492188 -53.671875 32.453125 -53.578125 C 32.410156 -53.492188 32.410156 -53.382812 32.453125 -53.25 C 32.492188 -53.113281 32.515625 -53 32.515625 -52.90625 L 32.921875 -52.25 C 32.921875 -52.25 33.007812 -52.335938 33.1875 -52.515625 Z M 30.78125 -53.71875 L 30.78125 -53.453125 L 31.453125 -53.453125 L 31.453125 -53.71875 Z M 41.984375 -52.515625 C 42.429688 -52.953125 42.832031 -53.265625 43.1875 -53.453125 C 42.832031 -53.453125 42.65625 -53.492188 42.65625 -53.578125 C 42.382812 -53.304688 42.113281 -53.171875 41.84375 -53.171875 C 41.582031 -53.171875 41.316406 -53.304688 41.046875 -53.578125 C 40.960938 -53.492188 40.765625 -53.335938 40.453125 -53.109375 C 40.140625 -52.890625 39.984375 -52.734375 39.984375 -52.640625 C 39.984375 -52.285156 40.070312 -52.066406 40.25 -51.984375 C 41.3125 -52.066406 41.890625 -52.242188 41.984375 -52.515625 Z M 45.1875 -52.90625 C 45.1875 -52.820312 45.207031 -52.753906 45.25 -52.703125 C 45.289062 -52.660156 45.3125 -52.640625 45.3125 -52.640625 C 45.3125 -52.640625 45.332031 -52.617188 45.375 -52.578125 C 45.425781 -52.535156 45.453125 -52.515625 45.453125 -52.515625 L 45.84375 -52.90625 Z M 30.78125 -52.109375 C 30.78125 -52.285156 30.828125 -52.375 30.921875 -52.375 L 30.78125 -52.640625 L 30.515625 -52.515625 L 30.390625 -52.515625 Z M 40.78125 -49.1875 C 40.425781 -49.71875 39.984375 -49.984375 39.453125 -49.984375 L 39.1875 -49.984375 C 39.1875 -49.890625 39.097656 -49.84375 38.921875 -49.84375 C 38.648438 -49.84375 38.382812 -49.976562 38.125 -50.25 C 38.5625 -50.507812 38.957031 -50.640625 39.3125 -50.640625 C 39.664062 -50.640625 39.890625 -50.460938 39.984375 -50.109375 C 39.984375 -50.285156 40.070312 -50.507812 40.25 -50.78125 C 40.425781 -51.050781 40.601562 -51.226562 40.78125 -51.3125 L 39.984375 -51.3125 L 39.71875 -51.1875 C 39.363281 -51.1875 39.070312 -51.273438 38.84375 -51.453125 C 38.625 -51.628906 38.515625 -51.804688 38.515625 -51.984375 C 38.515625 -51.453125 38.203125 -51.1875 37.578125 -51.1875 L 37.578125 -51.3125 L 36.921875 -51.3125 C 36.828125 -51.3125 36.691406 -51.222656 36.515625 -51.046875 L 36.390625 -51.046875 L 36.25 -50.90625 C 35.8125 -50.90625 35.59375 -50.726562 35.59375 -50.375 L 36.390625 -50.25 C 36.566406 -49.894531 36.921875 -49.628906 37.453125 -49.453125 C 37.804688 -49.359375 38.335938 -49.085938 39.046875 -48.640625 L 40.78125 -48.640625 Z M 42.65625 -51.84375 L 43.453125 -51.578125 L 43.453125 -51.71875 L 42.921875 -51.984375 Z M 30.25 -50.640625 C 30.070312 -50.640625 29.984375 -50.550781 29.984375 -50.375 L 30.65625 -50.375 Z M 44.78125 -49.71875 C 44.695312 -49.976562 44.429688 -50.109375 43.984375 -50.109375 L 43.71875 -49.71875 Z M 48.921875 -49.1875 C 49.273438 -49.1875 49.539062 -49.226562 49.71875 -49.3125 C 49.894531 -49.3125 50.023438 -49.359375 50.109375 -49.453125 L 50.375 -49.578125 L 50.109375 -49.84375 C 49.929688 -49.84375 49.800781 -49.890625 49.71875 -49.984375 L 49.3125 -49.984375 C 49.226562 -49.984375 49.09375 -50.003906 48.90625 -50.046875 C 48.726562 -50.085938 48.460938 -50.109375 48.109375 -50.109375 L 47.84375 -49.453125 L 48.375 -49.1875 Z M 31.59375 -48.921875 L 31.59375 -48.515625 L 31.859375 -48.515625 L 31.859375 -48.921875 Z M 45.046875 -48.515625 L 44.375 -48.515625 L 44.375 -48.25 L 45.046875 -48.25 Z M 38.25 -47.84375 L 38.25 -47.453125 L 38.515625 -47.453125 L 38.515625 -47.84375 Z M 41.578125 -45.3125 C 41.847656 -45.582031 42.023438 -45.71875 42.109375 -45.71875 L 41.1875 -45.71875 L 40.125 -45.984375 L 39.984375 -45.3125 C 39.984375 -45.3125 40.003906 -45.289062 40.046875 -45.25 C 40.097656 -45.207031 40.125 -45.1875 40.125 -45.1875 L 40.390625 -45.046875 L 40.921875 -44.921875 C 41.097656 -44.921875 41.316406 -45.050781 41.578125 -45.3125 Z M 44.65625 -45.046875 L 44.65625 -45.71875 L 43.453125 -45.71875 L 43.1875 -45.3125 C 43.539062 -45.132812 43.71875 -45.046875 43.71875 -45.046875 L 44.25 -44.921875 Z M 53.453125 -43.71875 L 53.84375 -44.109375 C 53.757812 -44.109375 53.628906 -44.242188 53.453125 -44.515625 L 52.109375 -44.515625 L 51.984375 -44.375 L 51.984375 -43.84375 Z M 56.25 -42.109375 C 56.25 -42.109375 56.289062 -42.085938 56.375 -42.046875 C 56.46875 -42.003906 56.691406 -42.160156 57.046875 -42.515625 L 56.78125 -42.65625 L 56.640625 -42.921875 C 56.285156 -42.921875 56.109375 -42.785156 56.109375 -42.515625 C 56.109375 -42.242188 56.15625 -42.109375 56.25 -42.109375 Z M 47.3125 -42.515625 C 47.226562 -42.609375 47.003906 -42.65625 46.640625 -42.65625 L 46.921875 -41.984375 C 47.097656 -42.066406 47.1875 -42.15625 47.1875 -42.25 C 47.1875 -42.34375 47.226562 -42.429688 47.3125 -42.515625 Z M 62.78125 -41.3125 L 62.78125 -38.921875 C 62.78125 -38.742188 62.890625 -38.609375 63.109375 -38.515625 C 63.328125 -38.429688 63.523438 -38.429688 63.703125 -38.515625 L 63.703125 -41.3125 Z M 52.25 -37.859375 L 52.515625 -37.859375 L 52.640625 -38.390625 L 52.375 -38.390625 Z M 17.0625 -37.046875 L 17.859375 -36.921875 L 17.859375 -37.046875 L 17.71875 -37.1875 L 17.71875 -37.3125 C 17.457031 -37.226562 17.101562 -37.1875 16.65625 -37.1875 L 16 -37.1875 Z M 18.53125 -36.25 C 19.0625 -36.25 19.414062 -36.335938 19.59375 -36.515625 L 19.59375 -36.921875 C 19.5 -37.003906 19.273438 -37.046875 18.921875 -37.046875 L 18.65625 -36.921875 L 18.53125 -36.78125 L 18.265625 -36.78125 L 18.265625 -36.25 Z M 11.203125 -35.984375 C 11.378906 -35.804688 11.554688 -35.539062 11.734375 -35.1875 C 11.910156 -35.007812 12.019531 -34.851562 12.0625 -34.71875 C 12.101562 -34.582031 12.171875 -34.472656 12.265625 -34.390625 C 12.441406 -34.390625 12.570312 -34.429688 12.65625 -34.515625 L 13.328125 -34.921875 C 13.679688 -35.179688 13.859375 -35.445312 13.859375 -35.71875 C 13.859375 -35.988281 13.769531 -36.164062 13.59375 -36.25 C 13.507812 -36.25 13.441406 -36.289062 13.390625 -36.375 C 13.347656 -36.46875 13.328125 -36.515625 13.328125 -36.515625 Z M 20.390625 -35.3125 L 19.984375 -35.453125 L 19.859375 -35.453125 L 20.125 -35.1875 Z M 51.046875 -32.125 C 51.046875 -32.207031 50.957031 -32.335938 50.78125 -32.515625 L 50.375 -32.78125 L 49.71875 -32.78125 L 49.984375 -31.984375 L 50.640625 -31.984375 L 50.78125 -32.125 Z M 20.125 -31.453125 L 20.125 -31.046875 L 20.796875 -31.046875 L 21.1875 -31.453125 Z M 52.640625 -28.25 L 52.640625 -28.65625 L 52.375 -29.1875 L 51.984375 -29.1875 L 51.984375 -28.25 Z M 18.390625 -28.65625 C 17.859375 -28.300781 17.546875 -27.988281 17.453125 -27.71875 L 18.125 -27.71875 L 19.0625 -28.25 C 19.0625 -28.34375 18.992188 -28.429688 18.859375 -28.515625 C 18.722656 -28.609375 18.566406 -28.65625 18.390625 -28.65625 Z M 43.984375 -27.453125 C 44.160156 -27.453125 44.25 -27.5 44.25 -27.59375 L 44.25 -27.71875 L 43.71875 -27.984375 C 43.363281 -27.804688 43.1875 -27.628906 43.1875 -27.453125 Z M 53.578125 -26.65625 C 53.753906 -26.65625 53.910156 -26.722656 54.046875 -26.859375 C 54.179688 -26.992188 54.25 -27.101562 54.25 -27.1875 C 53.894531 -27.1875 53.671875 -27.007812 53.578125 -26.65625 Z M 6.65625 -23.328125 L 6.65625 -23.71875 L 6.390625 -23.71875 L 6.390625 -23.328125 Z M 18.796875 -21.59375 C 19.328125 -21.851562 19.59375 -22.117188 19.59375 -22.390625 C 19.59375 -22.742188 19.367188 -22.96875 18.921875 -23.0625 L 18.65625 -22.921875 L 18.53125 -22.53125 L 18.65625 -22.125 Z M 42.921875 -22.265625 C 43.097656 -22.171875 43.316406 -22.125 43.578125 -22.125 C 43.671875 -22.21875 43.804688 -22.265625 43.984375 -22.265625 L 43.984375 -22.65625 L 43.453125 -22.65625 C 43.097656 -22.476562 42.921875 -22.347656 42.921875 -22.265625 Z M 6.65625 -22.53125 L 6.390625 -22.390625 L 6.65625 -22.265625 L 6.9375 -22.390625 Z M 55.171875 -22.125 C 54.992188 -22.03125 54.953125 -21.941406 55.046875 -21.859375 L 55.171875 -21.59375 L 55.71875 -21.859375 L 55.71875 -21.984375 C 55.71875 -21.984375 55.691406 -22.003906 55.640625 -22.046875 C 55.597656 -22.097656 55.578125 -22.125 55.578125 -22.125 L 55.4375 -22.265625 C 55.351562 -22.265625 55.3125 -22.21875 55.3125 -22.125 Z M 53.84375 -20.796875 C 53.664062 -20.972656 53.535156 -21.0625 53.453125 -21.0625 C 53.453125 -20.53125 53.492188 -20.171875 53.578125 -19.984375 L 53.578125 -19.59375 C 53.671875 -19.675781 53.894531 -19.71875 54.25 -19.71875 L 54.25 -20.390625 Z M 10.125 -20.125 C 10.300781 -20.125 10.390625 -20.257812 10.390625 -20.53125 L 10.125 -20.65625 L 9.46875 -20.65625 C 9.46875 -20.394531 9.507812 -20.265625 9.59375 -20.265625 C 9.863281 -20.265625 10.039062 -20.21875 10.125 -20.125 Z M 18.65625 -19.859375 C 18.832031 -19.859375 18.832031 -19.945312 18.65625 -20.125 C 18.476562 -20.300781 18.390625 -20.390625 18.390625 -20.390625 C 18.390625 -20.210938 18.300781 -20.078125 18.125 -19.984375 C 18.125 -19.898438 18.210938 -19.859375 18.390625 -19.859375 Z M 59.96875 -19.328125 C 59.789062 -19.503906 59.703125 -19.59375 59.703125 -19.59375 C 59.523438 -19.769531 59.394531 -19.859375 59.3125 -19.859375 L 58.78125 -19.59375 C 58.78125 -19.59375 58.753906 -19.566406 58.703125 -19.515625 C 58.660156 -19.472656 58.640625 -19.453125 58.640625 -19.453125 L 58.515625 -19.453125 L 58.109375 -19.59375 C 58.109375 -19.769531 58.15625 -19.898438 58.25 -19.984375 L 58.375 -20.125 C 58.375 -20.125 58.394531 -20.144531 58.4375 -20.1875 C 58.488281 -20.238281 58.515625 -20.265625 58.515625 -20.265625 L 58.109375 -20.265625 C 57.929688 -20.347656 57.773438 -20.367188 57.640625 -20.328125 C 57.503906 -20.285156 57.347656 -20.265625 57.171875 -20.265625 L 57.4375 -19.453125 C 57.4375 -19.367188 57.457031 -19.257812 57.5 -19.125 C 57.550781 -18.988281 57.664062 -18.832031 57.84375 -18.65625 C 58.113281 -18.65625 58.25 -18.703125 58.25 -18.796875 L 58.78125 -18.796875 C 59.21875 -18.796875 59.523438 -18.75 59.703125 -18.65625 Z M 14.53125 -19.1875 C 14.789062 -19.1875 15.078125 -19.296875 15.390625 -19.515625 C 15.703125 -19.742188 15.945312 -19.992188 16.125 -20.265625 L 15.859375 -20.125 C 15.859375 -20.03125 15.679688 -19.984375 15.328125 -19.984375 C 15.148438 -19.984375 15.0625 -20.03125 15.0625 -20.125 L 14.53125 -20.265625 C 14.082031 -20.265625 13.769531 -19.992188 13.59375 -19.453125 L 14.125 -19.328125 C 14.125 -19.234375 14.257812 -19.1875 14.53125 -19.1875 Z M 55.984375 -19.453125 L 55.84375 -19.984375 C 55.394531 -19.804688 55.171875 -19.628906 55.171875 -19.453125 L 55.984375 -19.1875 Z M 53.578125 -18.65625 C 53.398438 -18.21875 53.265625 -18 53.171875 -18 C 52.992188 -18.175781 52.773438 -18.21875 52.515625 -18.125 L 51.71875 -18.125 C 51.800781 -18.039062 51.863281 -17.929688 51.90625 -17.796875 C 51.957031 -17.660156 52.023438 -17.59375 52.109375 -17.59375 C 52.285156 -17.414062 52.460938 -17.328125 52.640625 -17.328125 C 52.816406 -17.328125 52.953125 -17.367188 53.046875 -17.453125 L 53.578125 -17.59375 L 53.84375 -17.59375 L 54.109375 -17.859375 L 54.109375 -18.265625 Z M 20.125 -18.265625 C 20.125 -18.265625 20.097656 -18.285156 20.046875 -18.328125 C 20.003906 -18.367188 19.984375 -18.390625 19.984375 -18.390625 L 19.859375 -18.53125 L 19.59375 -18.265625 Z M 47.578125 -18 L 47.3125 -17.859375 L 47.578125 -17.71875 L 47.84375 -17.859375 Z M 13.734375 -15.859375 C 13.992188 -16.035156 14.125 -16.171875 14.125 -16.265625 C 14.125 -16.441406 13.945312 -16.617188 13.59375 -16.796875 C 13.238281 -16.796875 12.972656 -16.835938 12.796875 -16.921875 C 12.441406 -16.742188 12.265625 -16.523438 12.265625 -16.265625 C 12.265625 -16.085938 12.304688 -16 12.390625 -16 C 12.390625 -16 12.410156 -15.972656 12.453125 -15.921875 C 12.503906 -15.878906 12.53125 -15.859375 12.53125 -15.859375 Z M 55.171875 -15.453125 C 55.617188 -15.191406 55.976562 -15.0625 56.25 -15.0625 C 56.507812 -15.0625 56.6875 -15.101562 56.78125 -15.1875 C 56.78125 -15.363281 56.820312 -15.453125 56.90625 -15.453125 C 56.726562 -15.640625 56.507812 -15.734375 56.25 -15.734375 L 55.71875 -16 Z M 6.65625 -14.796875 L 6.65625 -15.453125 L 6.390625 -15.453125 L 6.390625 -14.796875 Z M 21.71875 -15.0625 L 21.71875 -14.796875 L 22.390625 -14.796875 L 22.390625 -15.0625 Z M 50.109375 -14.921875 C 50.109375 -14.484375 50.421875 -14.265625 51.046875 -14.265625 C 50.773438 -14.441406 50.640625 -14.570312 50.640625 -14.65625 Z M 52.90625 -12.65625 C 52.90625 -12.65625 52.816406 -12.925781 52.640625 -13.46875 C 52.554688 -13.550781 52.515625 -13.726562 52.515625 -14 C 52.515625 -13.90625 52.445312 -13.703125 52.3125 -13.390625 C 52.175781 -13.078125 52.15625 -12.832031 52.25 -12.65625 Z M 42.78125 -13.328125 L 42.921875 -13.328125 L 43.453125 -13.46875 C 43.453125 -13.644531 43.273438 -13.734375 42.921875 -13.734375 L 42.78125 -13.734375 L 42.65625 -13.59375 L 42.78125 -13.46875 Z M 4.796875 -13.1875 C 4.085938 -13.375 3.597656 -13.46875 3.328125 -13.46875 C 3.066406 -13.46875 2.9375 -13.332031 2.9375 -13.0625 C 3.195312 -12.707031 3.679688 -12.53125 4.390625 -12.53125 L 4.796875 -12.65625 Z M 57.4375 -10.921875 C 57.707031 -11.109375 57.84375 -11.289062 57.84375 -11.46875 L 57.578125 -12 C 57.398438 -11.820312 57.265625 -11.734375 57.171875 -11.734375 L 56.78125 -11.46875 C 56.25 -11.195312 55.984375 -10.972656 55.984375 -10.796875 C 56.335938 -10.796875 56.515625 -10.75 56.515625 -10.65625 C 56.421875 -10.570312 56.460938 -10.394531 56.640625 -10.125 L 56.90625 -10.125 C 56.90625 -10.21875 56.992188 -10.265625 57.171875 -10.265625 C 56.992188 -10.523438 57.082031 -10.742188 57.4375 -10.921875 Z M 6.9375 -10.390625 L 6.53125 -10.390625 L 6.53125 -8.9375 C 6.53125 -9.195312 6.570312 -9.414062 6.65625 -9.59375 C 6.65625 -9.769531 6.703125 -9.90625 6.796875 -10 Z M 45.84375 -10 C 45.664062 -9.726562 45.800781 -9.59375 46.25 -9.59375 L 46.515625 -9.859375 Z M 55.984375 -7.859375 L 56.375 -8.265625 C 56.195312 -8.265625 56.109375 -8.351562 56.109375 -8.53125 L 55.4375 -8.53125 C 55.257812 -8.53125 55.171875 -8.441406 55.171875 -8.265625 C 55.265625 -8.085938 55.398438 -8 55.578125 -8 Z M 58.640625 -8.125 L 58.640625 -7.46875 L 58.90625 -7.46875 L 58.90625 -8.125 Z M 43.453125 -7.203125 C 43.097656 -7.378906 42.832031 -7.46875 42.65625 -7.46875 L 42.109375 -7.59375 C 41.847656 -7.507812 41.738281 -7.378906 41.78125 -7.203125 C 41.820312 -7.023438 41.929688 -6.9375 42.109375 -6.9375 Z M 43.453125 -5.0625 C 43.984375 -5.414062 44.382812 -5.59375 44.65625 -5.59375 C 45.09375 -5.6875 45.488281 -5.953125 45.84375 -6.390625 L 45.84375 -6.65625 L 45.71875 -6.65625 C 45.539062 -6.65625 45.40625 -6.613281 45.3125 -6.53125 L 44.78125 -6.390625 L 43.984375 -6.65625 C 43.710938 -6.570312 43.507812 -6.328125 43.375 -5.921875 C 43.25 -5.523438 43.273438 -5.238281 43.453125 -5.0625 Z M 55.171875 -4.671875 C 54.910156 -4.847656 54.78125 -4.9375 54.78125 -4.9375 L 54.375 -4.9375 L 54.375 -4.53125 Z M 57.84375 -4.265625 C 57.75 -4.265625 57.523438 -4.351562 57.171875 -4.53125 C 57.085938 -4.625 56.910156 -4.671875 56.640625 -4.671875 C 56.460938 -4.671875 56.375 -4.625 56.375 -4.53125 C 56.375 -4.53125 56.351562 -4.503906 56.3125 -4.453125 C 56.269531 -4.410156 56.25 -4.390625 56.25 -4.390625 L 56.25 -4 L 56.375 -3.734375 L 56.515625 -3.59375 L 57.84375 -4 Z M 46.921875 -3.0625 C 47.003906 -3.0625 47.179688 -3.285156 47.453125 -3.734375 C 46.734375 -3.734375 46.109375 -4 45.578125 -4.53125 C 45.316406 -4.257812 45.1875 -4.035156 45.1875 -3.859375 C 45.1875 -3.679688 45.316406 -3.503906 45.578125 -3.328125 C 45.847656 -3.148438 46.113281 -3.0625 46.375 -3.0625 Z M 46.921875 -3.0625" transform="translate(177.077 236.819)"/></g></g></g></svg>